mtllib material.mtl
o Default
v 4.440892098500626e-16 -2 3.9999999999999987
v 0 0 2
v 0 0 2
v 1.3322676295501878e-15 -2 -1.3322676295501878e-15
v -4 -2 3.9999999999999982
v -4 0 2
v 0 0 2
v 0 -2 3.9999999999999982
v 0 -2 -1.7763568394002505e-15
v 0 0 2
v -4 0 1.9999999999999996
v -4 -2 -1.7763568394002505e-15
v -4 -2 -1.7763568394002505e-15
v -4 0 2
v -4 0 2
v -3.999999999999999 -2 3.9999999999999982
v -4 -9.99990364352515 0.000049999999748306934
v -4 -9.99950364352715 4.000049979999749
v 0 -9.99950364352715 4.000049979999749
v 0 -9.99990364352515 0.000049999999748306934
v 0 -10 1.7763568394002505e-15
v 0 -6 0
v -4 -6 0
v -4 -10 1.7763568394002505e-15
v 0 -6 0
v 0 -2 -1.7763568394002505e-15
v -4 -2 -1.7763568394002505e-15
v -4 -6 0
v 4.821794030869514e-16 -6 4
v 4.090892173435486e-16 -2 3.9999999999999982
v 1.2972676370436739e-15 -2 -1.7763568394002505e-15
v 1.3703578227870766e-15 -6 0
v 3.8165864587344535e-16 -10 3.9999999999999982
v 4.821794030869514e-16 -6 4
v 1.3703578227870766e-15 -6 0
v 1.2698370655735706e-15 -10 -1.7763568394002505e-15
v -4 -6 4.000000000000002
v -4 -2 3.9999999999999982
v 0 -2 3.9999999999999982
v 0 -6 4.000000000000002
v -4 -10 3.9999999999999982
v -4 -6 4.000000000000002
v 0 -6 4.000000000000002
v 0 -10 3.9999999999999982
v -4 -10 -1.7763568394002505e-15
v -3.9999999999999996 -6 0
v -3.9999999999999987 -6 4
v -3.999999999999999 -10 3.9999999999999982
v -3.9999999999999996 -6 0
v -4 -2 -1.7763568394002505e-15
v -3.999999999999999 -2 3.9999999999999982
v -3.9999999999999987 -6 4
vt 0 0.5
vt 0.5 1
vt 0 1
vt 0 0.5
vt 0.5 0.5
vt 0.5 1
vt 0 0.5
vt 0.5 1
vt 0 1
vt 0 0.5
vt 0.5 0.5
vt 0.5 1
vt 0 0.5
vt 0.5 1
vt 0 1
vt 0 0.5
vt 0.5 0.5
vt 0.5 1
vt 0 0.5
vt 0.5 1
vt 0 1
vt 0 0.5
vt 0.5 0.5
vt 0.5 1
vt 0 0.5
vt 0.5 1
vt 0 1
vt 0 0.5
vt 0.5 0.5
vt 0.5 1
vt 0 0
vt 0.5 0.5
vt 0 0.5
vt 0 0
vt 0.5 0
vt 0.5 0.5
vt 0 0.5
vt 0.5 1
vt 0 1
vt 0 0.5
vt 0.5 0.5
vt 0.5 1
vt 0 0.5
vt 0.5 1
vt 0 1
vt 0 0.5
vt 0.5 0.5
vt 0.5 1
vt 0 0
vt 0.5 0.5
vt 0 0.5
vt 0 0
vt 0.5 0
vt 0.5 0.5
vt 0.5 0.5
vt 1 1
vt 0.5 1
vt 0.5 0.5
vt 1 0.5
vt 1 1
vt 0.5 0
vt 1 0.5
vt 0.5 0.5
vt 0.5 0
vt 1 0
vt 1 0.5
vt 0 0
vt 0.5 0.5
vt 0 0.5
vt 0 0
vt 0.5 0
vt 0.5 0.5
vt 0 0.5
vt 0.5 1
vt 0 1
vt 0 0.5
vt 0.5 0.5
vt 0.5 1
vn 0 0 0
vn 0 0 0
vn 0 0 0
vn 1 4.4408920985006247e-16 2.220446049250313e-16
vn 1 4.4408920985006247e-16 2.220446049250313e-16
vn 1 4.4408920985006247e-16 2.220446049250313e-16
vn 0 0.7071067811865471 0.7071067811865478
vn 0 0.7071067811865471 0.7071067811865478
vn 0 0.7071067811865471 0.7071067811865478
vn 0 0.7071067811865471 0.7071067811865478
vn 0 0.7071067811865471 0.7071067811865478
vn 0 0.7071067811865471 0.7071067811865478
vn 7.850462293418872e-17 0.7071067811865479 -0.7071067811865472
vn 7.850462293418872e-17 0.7071067811865479 -0.7071067811865472
vn 7.850462293418872e-17 0.7071067811865479 -0.7071067811865472
vn 0 0.7071067811865477 -0.7071067811865472
vn 0 0.7071067811865477 -0.7071067811865472
vn 0 0.7071067811865477 -0.7071067811865472
vn 0 0 0
vn 0 0 0
vn 0 0 0
vn -1 -2.220446049250315e-16 2.220446049250313e-16
vn -1 -2.220446049250315e-16 2.220446049250313e-16
vn -1 -2.220446049250315e-16 2.220446049250313e-16
vn 0 -0.999999995 0.00009999999949972249
vn 0 -0.999999995 0.00009999999949972249
vn 0 -0.999999995 0.00009999999949972249
vn 0 -0.999999995 0.00009999999949972249
vn 0 -0.999999995 0.00009999999949972249
vn 0 -0.999999995 0.00009999999949972249
vn 0 -4.440892098500626e-16 -1
vn 0 -4.440892098500626e-16 -1
vn 0 -4.440892098500626e-16 -1
vn 0 -4.440892098500626e-16 -1
vn 0 -4.440892098500626e-16 -1
vn 0 -4.440892098500626e-16 -1
vn 0 -4.440892098500626e-16 -1
vn 0 -4.440892098500626e-16 -1
vn 0 -4.440892098500626e-16 -1
vn 0 -4.440892098500626e-16 -1
vn 0 -4.440892098500626e-16 -1
vn 0 -4.440892098500626e-16 -1
vn 1 1.8272546435850782e-17 2.220446049250313e-16
vn 1 1.8272546435850782e-17 2.220446049250313e-16
vn 1 1.8272546435850782e-17 2.220446049250313e-16
vn 1 1.8272546435850782e-17 2.220446049250313e-16
vn 1 1.8272546435850782e-17 2.220446049250313e-16
vn 1 1.8272546435850782e-17 2.220446049250313e-16
vn 1 -2.5130189303376598e-17 2.220446049250313e-16
vn 1 -2.5130189303376598e-17 2.220446049250313e-16
vn 1 -2.5130189303376598e-17 2.220446049250313e-16
vn 1 -2.5130189303376598e-17 2.220446049250313e-16
vn 1 -2.5130189303376598e-17 2.220446049250313e-16
vn 1 -2.5130189303376598e-17 2.220446049250313e-16
vn 0 8.881784197001252e-16 1
vn 0 8.881784197001252e-16 1
vn 0 8.881784197001252e-16 1
vn 0 8.881784197001252e-16 1
vn 0 8.881784197001252e-16 1
vn 0 8.881784197001252e-16 1
vn 0 -8.881784197001252e-16 1
vn 0 -8.881784197001252e-16 1
vn 0 -8.881784197001252e-16 1
vn 0 -8.881784197001252e-16 1
vn 0 -8.881784197001252e-16 1
vn 0 -8.881784197001252e-16 1
vn -1 1.1102230246251556e-16 2.220446049250313e-16
vn -1 1.1102230246251556e-16 2.220446049250313e-16
vn -1 1.1102230246251556e-16 2.220446049250313e-16
vn -1 1.1102230246251556e-16 2.220446049250313e-16
vn -1 1.1102230246251556e-16 2.220446049250313e-16
vn -1 1.1102230246251556e-16 2.220446049250313e-16
vn -1 -1.1102230246251556e-16 2.220446049250313e-16
vn -1 -1.1102230246251556e-16 2.220446049250313e-16
vn -1 -1.1102230246251556e-16 2.220446049250313e-16
vn -1 -1.1102230246251556e-16 2.220446049250313e-16
vn -1 -1.1102230246251556e-16 2.220446049250313e-16
vn -1 -1.1102230246251556e-16 2.220446049250313e-16
g Scene
usemtl material2
f 1/1/1 3/2/2 2/3/3
f 1/4/4 4/5/5 3/6/6
f 5/7/7 7/8/8 6/9/9
f 5/10/10 8/11/11 7/12/12
f 9/13/13 11/14/14 10/15/15
f 9/16/16 12/17/17 11/18/18
f 13/19/19 15/20/20 14/21/21
f 13/22/22 16/23/23 15/24/24
f 17/25/25 19/26/26 18/27/27
f 17/28/28 20/29/29 19/30/30
f 21/31/31 23/32/32 22/33/33
f 21/34/34 24/35/35 23/36/36
f 25/37/37 27/38/38 26/39/39
f 25/40/40 28/41/41 27/42/42
f 29/43/43 31/44/44 30/45/45
f 29/46/46 32/47/47 31/48/48
f 33/49/49 35/50/50 34/51/51
f 33/52/52 36/53/53 35/54/54
f 37/55/55 39/56/56 38/57/57
f 37/58/58 40/59/59 39/60/60
f 41/61/61 43/62/62 42/63/63
f 41/64/64 44/65/65 43/66/66
f 45/67/67 47/68/68 46/69/69
f 45/70/70 48/71/71 47/72/72
f 49/73/73 51/74/74 50/75/75
f 49/76/76 52/77/77 51/78/78
