# ProBuilder 4.5.0
# https://unity3d.com/unity/features/worldbuilding/probuilder
# 5/26/2021 5:35:57 PM

mtllib ./Fitness_dvd.mtl
o Fitness dvd

g Fitness dvd Prefab
v 17.72 1.79 -25.87
v 16.72 1.79 -25.87
v 17.72 3.282887 -25.87
v 16.72 3.282887 -25.87
v 16.72 1.79 -26.22651
v 16.72 3.282887 -26.22651
v 17.72 1.79 -26.22651
v 17.72 3.282887 -26.22651

vt 0.4642631 -0.01963109
vt -0.001766503 -0.01963109
vt 0.4642631 0.9967399
vt -0.001766503 0.9967399
vt 0.1227436 0.9114592
vt 0.01768996 0.9114592
vt 0.1227436 1.419536
vt 0.01768996 1.419536
vt 0.9956094 0.00825572
vt 0.5283865 0.00825572
vt 0.9956094 0.9987462
vt 0.5283865 0.9987462
vt 0.5219259 -0.002892613
vt 0.4708152 -0.002892613
vt 0.5219259 1.002804
vt 0.4708152 1.002804
vt 0.1700286 1.386653
vt 0.1973501 1.01828
vt 0.03870234 1.376913
vt 0.06602386 1.00854
vt 0.01780748 1.00108
vt 0.01204449 1.399476
vt 0.1598369 1.003134
vt 0.154074 1.40153

vn 0 0 1
vn -1 0 0
vn 0 0 -1
vn 1 0 0
vn 0 1 0
vn 0 -1 0

usemtl fitness_cover
f 3/3/1 4/4/1 2/2/1 1/1/1
f 4/7/2 6/8/2 5/6/2 2/5/2
f 6/11/3 8/12/3 7/10/3 5/9/3
f 8/15/4 3/16/4 1/14/4 7/13/4
f 8/19/5 6/20/5 4/18/5 3/17/5
f 1/23/6 2/24/6 5/22/6 7/21/6

