# Blender v2.92.0 OBJ File: 'FrozenFood.blend'
# www.blender.org
mtllib FrozenFood.mtl
o Cube
v 0.959370 1.000000 -0.059370
v 0.951924 -1.000000 -0.051924
v 0.959370 1.000000 0.060392
v 0.951924 -1.000000 0.052946
v -1.000000 1.000000 -0.100000
v -0.951924 -1.000000 -0.051924
v -1.000000 1.000000 0.101022
v -0.951924 -1.000000 0.052946
v 1.000000 0.000000 -0.400000
v -1.000000 0.000000 0.400000
v 1.000000 0.000000 0.400000
v -1.000000 0.000000 -0.400000
v -1.000000 0.500000 0.400000
v 1.000000 0.500000 -0.400000
v 1.000000 0.500000 0.400000
v -1.000000 0.500000 -0.400000
v 1.000000 -0.500000 -0.400000
v 1.000000 -0.500000 0.400000
v -1.000000 -0.500000 -0.400000
v -1.000000 -0.500000 0.400000
v 1.000000 0.250000 -0.500000
v 1.000000 0.250000 0.300000
v -1.000000 0.250000 -0.300000
v -1.000000 0.250000 0.500000
v 0.000000 -1.000000 -0.051924
v 0.000000 1.000000 0.060392
v 0.000000 -1.000000 0.052946
v 0.000000 1.000000 -0.059370
v 0.000000 0.000000 -0.400000
v 0.000000 0.000000 0.400000
v 0.000000 0.500000 -0.400000
v 0.000000 0.500000 0.400000
v 0.000000 -0.500000 0.400000
v 0.000000 -0.500000 -0.400000
v 0.000000 0.250000 0.400000
v 0.000000 0.250000 -0.400000
v -1.000000 -0.250000 0.300000
v 1.000000 -0.250000 -0.258157
v 1.000000 -0.250000 0.500000
v -1.000000 -0.250000 -0.500000
v 0.000000 -0.250000 0.400000
v 0.000000 -0.250000 -0.358157
v 0.000000 1.000000 0.060392
v -0.959370 1.000000 0.060392
v -0.959370 1.000000 -0.059370
v 0.000000 1.000000 -0.059370
v 1.000000 1.000000 -0.100000
v 1.000000 1.000000 0.101022
v 0.000000 1.000000 -0.100000
v 0.000000 1.000000 0.101022
v 0.000000 1.000000 0.101022
v -1.000000 1.000000 0.101022
v -1.000000 1.000000 -0.100000
v 0.000000 1.000000 -0.100000
v 0.000000 1.140074 -0.001811
v 0.000000 1.140074 0.005060
v 0.000000 1.140074 -0.001811
v 0.000000 1.140074 0.005060
v 0.959370 1.140074 -0.001811
v 0.959370 1.140074 0.005060
v -0.959370 1.140074 0.005060
v -0.959370 1.140074 -0.001811
v -1.000000 -1.000000 -0.100000
v -1.000000 -1.000000 0.101022
v 0.000000 -1.000000 -0.100000
v 0.000000 -1.000000 0.101022
v 1.000000 -1.000000 0.101022
v 1.000000 -1.000000 -0.100000
v 0.000000 -1.149320 -0.001622
v 0.000000 -1.149320 0.002644
v -0.951924 -1.149320 -0.001622
v -0.951924 -1.149320 0.002644
v 0.951924 -1.149320 0.002644
v 0.951924 -1.149320 -0.001622
vt 0.625000 0.250000
vt 0.625000 0.000000
vt 0.625000 0.000000
vt 0.625000 0.250000
vt 0.562500 0.875000
vt 0.625000 0.875000
vt 0.625000 1.000000
vt 0.562500 1.000000
vt 0.562500 0.000000
vt 0.562500 0.250000
vt 0.131009 0.559789
vt 0.250000 0.559789
vt 0.250000 0.559789
vt 0.131009 0.559789
vt 0.562500 0.500000
vt 0.625000 0.500000
vt 0.625000 0.750000
vt 0.562500 0.750000
vt 0.562500 0.375000
vt 0.625000 0.375000
vt 0.468750 0.375000
vt 0.500000 0.375000
vt 0.500000 0.500000
vt 0.468750 0.500000
vt 0.500000 0.750000
vt 0.468750 0.750000
vt 0.468750 0.000000
vt 0.500000 0.000000
vt 0.500000 0.250000
vt 0.468750 0.250000
vt 0.468750 0.875000
vt 0.500000 0.875000
vt 0.500000 1.000000
vt 0.468750 1.000000
vt 0.531250 0.375000
vt 0.531250 0.500000
vt 0.531250 0.750000
vt 0.531250 0.000000
vt 0.531250 0.250000
vt 0.531250 0.875000
vt 0.531250 1.000000
vt 0.375000 0.875000
vt 0.437500 0.875000
vt 0.437500 1.000000
vt 0.375000 1.000000
vt 0.375000 0.000000
vt 0.437500 0.000000
vt 0.437500 0.250000
vt 0.375000 0.250000
vt 0.375000 0.500000
vt 0.437500 0.500000
vt 0.437500 0.750000
vt 0.375000 0.750000
vt 0.375000 0.375000
vt 0.437500 0.375000
vt 0.368991 0.559789
vt 0.368991 0.690211
vt 0.368991 0.690211
vt 0.368991 0.559789
vt 0.750000 0.699470
vt 0.750000 0.699470
vt 0.750000 0.699470
vt 0.750000 0.699470
vt 0.630079 0.699470
vt 0.630079 0.550530
vt 0.630079 0.550530
vt 0.630079 0.699470
vt 0.625000 0.375000
vt 0.625000 0.875000
vt 0.625000 1.000000
vt 0.750000 0.550530
vt 0.750000 0.500000
vt 0.750000 0.750000
vt 0.869921 0.699470
vt 0.875000 0.750000
vt 0.750000 0.750000
vt 0.869921 0.550530
vt 0.875000 0.500000
vt 0.750000 0.550530
vt 0.750000 0.500000
vt 0.750000 0.550530
vt 0.750000 0.550530
vt 0.869921 0.550530
vt 0.869921 0.699470
vt 0.131009 0.690211
vt 0.125000 0.750000
vt 0.125000 0.500000
vt 0.250000 0.500000
vt 0.250000 0.690211
vt 0.250000 0.750000
vt 0.250000 0.690211
vt 0.131009 0.690211
vn 0.0000 0.0000 1.0000
vn 0.0000 0.5132 0.8583
vn -1.0000 0.0000 0.0000
vn 0.0000 -0.3192 -0.9477
vn 1.0000 0.0000 0.0000
vn 0.0000 0.5145 -0.8575
vn 0.0469 -0.3445 -0.9376
vn -0.0490 -0.1959 0.9794
vn -0.0490 0.1959 -0.9794
vn 0.0490 0.1959 0.9794
vn 0.0000 -0.5132 0.8583
vn 0.0000 -0.5145 -0.8575
vn 0.0490 -0.1959 0.9794
vn -0.0490 -0.1959 -0.9794
vn -0.0490 0.1959 0.9794
vn 0.0703 0.1152 -0.9908
vn 0.0703 -0.1152 -0.9908
vn 0.0469 0.3445 -0.9376
vn -0.0000 0.3674 0.9301
vn 0.0000 1.0000 0.0000
vn 0.0000 0.3801 -0.9250
vn 0.0000 -1.0000 0.0000
vn -0.0000 -0.3192 0.9477
usemtl Frozenfoods
s off
f 5/1/1 7/2/1 52/3/1 53/4/1
f 32/5/2 50/6/2 7/7/2 13/8/2
f 13/9/3 7/2/3 5/1/3 16/10/3
f 6/11/4 25/12/4 69/13/4 71/14/4
f 14/15/5 47/16/5 48/17/5 15/18/5
f 31/19/6 49/20/6 47/16/6 14/15/6
f 42/21/7 29/22/7 9/23/7 38/24/7
f 38/24/5 9/23/5 11/25/5 39/26/5
f 37/27/3 10/28/3 12/29/3 40/30/3
f 41/31/8 30/32/8 10/33/8 37/34/8
f 36/35/9 31/19/9 14/15/9 21/36/9
f 21/36/5 14/15/5 15/18/5 22/37/5
f 24/38/3 13/9/3 16/10/3 23/39/3
f 35/40/10 32/5/10 13/8/10 24/41/10
f 66/42/11 33/43/11 20/44/11 64/45/11
f 64/46/3 20/47/3 19/48/3 63/49/3
f 68/50/5 17/51/5 18/52/5 67/53/5
f 65/54/12 34/55/12 17/51/12 68/50/12
f 30/32/13 35/40/13 24/41/13 10/33/13
f 10/28/3 24/38/3 23/39/3 12/29/3
f 9/23/5 21/36/5 22/37/5 11/25/5
f 29/22/14 36/35/14 21/36/14 9/23/14
f 12/29/9 23/39/9 36/35/9 29/22/9
f 11/25/10 22/37/10 35/40/10 30/32/10
f 63/49/12 19/48/12 34/55/12 65/54/12
f 67/53/11 18/52/11 33/43/11 66/42/11
f 22/37/13 15/18/13 32/5/13 35/40/13
f 23/39/14 16/10/14 31/19/14 36/35/14
f 39/26/15 11/25/15 30/32/15 41/31/15
f 40/30/16 12/29/16 29/22/16 42/21/16
f 16/10/6 5/1/6 49/20/6 31/19/6
f 2/56/5 4/57/5 73/58/5 74/59/5
f 15/18/2 48/17/2 50/6/2 32/5/2
f 43/60/1 26/61/1 56/62/1 58/63/1
f 19/48/17 40/30/17 42/21/17 34/55/17
f 18/52/8 39/26/8 41/31/8 33/43/8
f 33/43/15 41/31/15 37/34/15 20/44/15
f 20/47/3 37/27/3 40/30/3 19/48/3
f 17/51/5 38/24/5 39/26/5 18/52/5
f 34/55/18 42/21/18 38/24/18 17/51/18
f 3/64/5 1/65/5 59/66/5 60/67/5
f 49/20/1 5/1/1 53/4/1 54/68/1
f 26/61/19 3/64/19 60/67/19 56/62/19
f 7/7/1 50/6/1 51/69/1 52/70/1
f 1/65/20 3/64/20 48/17/20 47/16/20
f 28/71/20 1/65/20 47/16/20 49/72/20
f 3/64/20 26/61/20 50/73/20 48/17/20
f 43/60/20 44/74/20 52/75/20 51/76/20
f 44/74/20 45/77/20 53/78/20 52/75/20
f 45/77/20 46/79/20 54/80/20 53/78/20
f 46/79/1 28/71/1 49/72/1 54/80/1
f 26/61/1 43/60/1 51/76/1 50/73/1
f 59/66/20 55/81/20 56/62/20 60/67/20
f 57/82/20 62/83/20 61/84/20 58/63/20
f 56/62/1 55/81/1 57/82/1 58/63/1
f 46/79/21 45/77/21 62/83/21 57/82/21
f 44/74/19 43/60/19 58/63/19 61/84/19
f 1/65/21 28/71/21 55/81/21 59/66/21
f 28/71/1 46/79/1 57/82/1 55/81/1
f 45/77/3 44/74/3 61/84/3 62/83/3
f 6/11/22 8/85/22 64/86/22 63/87/22
f 25/12/22 6/11/22 63/87/22 65/88/22
f 27/89/22 4/57/22 67/53/22 66/90/22
f 4/57/22 2/56/22 68/50/22 67/53/22
f 2/56/22 25/12/22 65/88/22 68/50/22
f 8/85/22 27/89/22 66/90/22 64/86/22
f 69/13/22 74/59/22 73/58/22 70/91/22
f 71/14/22 69/13/22 70/91/22 72/92/22
f 25/12/4 2/56/4 74/59/4 69/13/4
f 4/57/23 27/89/23 70/91/23 73/58/23
f 8/85/3 6/11/3 71/14/3 72/92/3
f 27/89/23 8/85/23 72/92/23 70/91/23
