# ProBuilder 4.5.0
# https://unity3d.com/unity/features/worldbuilding/probuilder
# 21/05/2021 20:32:54

mtllib ./bananaBunch.mtl
o bananaBunch

g bananaBunch
v 0 0 0
v 0.04672593 0.2355114 0.100159
v 0.1462836 -0.06717143 0.08970135
v 0.1930095 0.16834 0.1898604
v 0.122984 0.2378125 -0.02247828
v 0.08755013 0.05921626 -0.09843221
v 0.2692675 0.170641 0.06722308
v 0.2338337 -0.007955168 -0.008730851
v 0.1532439 0.472827 0.1041612
v 0.2995275 0.4056556 0.1938625
v 0.2037601 0.4177768 -0.01944332
v 0.3500437 0.3506053 0.07025804
v 0.2993704 0.6669791 0.01124814
v 0.4456539 0.5998077 0.1009495
v 0.3145727 0.5650088 -0.08990239
v 0.4608563 0.4978374 -0.0002010318
v 0.4574165 0.7811787 -0.1609745
v 0.6037001 0.7140073 -0.07127314
v 0.4344243 0.6516102 -0.2205045
v 0.5807079 0.5844387 -0.1308032
v 0.5974351 0.7937869 -0.3798732
v 0.7437187 0.7266155 -0.2901718
v 0.5406051 0.6611714 -0.3865027
v 0.6868887 0.594 -0.2968014
v -0.003985347 -0.004436343 -0.8072969
v 0.06185631 0.2302591 -0.8982241
v -0.1177244 0.07457368 -0.6857225
v -0.05188268 0.3092692 -0.7766497
v 0.1589175 0.2087747 -0.7934572
v 0.1089907 0.03081149 -0.7245027
v 0.04517845 0.2877848 -0.6718828
v -0.004748309 0.1098063 -0.6029283
v 0.2037935 0.4481089 -0.9070055
v 0.09005453 0.5271037 -0.7854311
v 0.266553 0.3739817 -0.80011
v 0.1528292 0.4529764 -0.6785432
v 0.3949405 0.6078227 -0.8319781
v 0.2812167 0.6868327 -0.7104036
v 0.4115115 0.4950907 -0.7432176
v 0.2977877 0.5741007 -0.6216432
v 0.5990878 0.6791575 -0.6873477
v 0.485364 0.7581675 -0.5657808
v 0.5663272 0.5491984 -0.6335375
v 0.4525881 0.6281932 -0.5119706
v 0.7775546 0.6485941 -0.5005342
v 0.6638156 0.7275889 -0.3789597
v 0.7016574 0.526005 -0.4918749
v 0.5879183 0.6050151 -0.3703004
v -0.1380033 0.03514501 -0.3699952
v -0.1311827 0.2712901 -0.2610627
v -0.06889629 -0.03805139 -0.2156449
v -0.06207562 0.1980937 -0.1067124
v -0.001376176 0.2617991 -0.3236848
v -0.006548862 0.08270666 -0.4062882
v 0.06773091 0.1886027 -0.1693345
v 0.0625582 0.009510254 -0.2519379
v -0.02258588 0.5000041 -0.2012254
v 0.04652118 0.4268077 -0.04687503
v 0.08097554 0.4352305 -0.2783051
v 0.1500826 0.3620341 -0.1239548
v 0.1672182 0.6779217 -0.2018281
v 0.2363252 0.6047252 -0.04747777
v 0.2249117 0.570164 -0.278763
v 0.2940188 0.4969676 -0.124405
v 0.4022494 0.7713512 -0.2627489
v 0.4713565 0.6981547 -0.1083909
v 0.4031496 0.6410106 -0.324959
v 0.4722567 0.5678141 -0.1706086
v 0.6379824 0.7625773 -0.3724443
v 0.7070895 0.6893809 -0.218094
v 0.5819064 0.6343577 -0.4081422
v 0.6510135 0.5611613 -0.2537919
v -0.1080046 0.05008333 -0.6190034
v -0.09840679 0.3073466 -0.5814897
v -0.113513 0.02371617 -0.4367066
v -0.1039152 0.2809794 -0.3991929
v 0.04124163 0.2705119 -0.5825959
v 0.03396323 0.07542819 -0.611046
v 0.03573323 0.2441447 -0.4003068
v 0.0284548 0.04904577 -0.4287492
v 0.0206728 0.5357249 -0.5448534
v 0.01516437 0.5093577 -0.3625565
v 0.1315585 0.4436991 -0.5548173
v 0.1260347 0.4173319 -0.3725205
v 0.226697 0.6919444 -0.5160219
v 0.2211885 0.6655772 -0.3337327
v 0.287778 0.5621684 -0.5329515
v 0.2822695 0.5357859 -0.3506623
v 0.4806185 0.7464183 -0.5004732
v 0.4751101 0.7200359 -0.3181764
v 0.4803286 0.6034739 -0.5211564
v 0.4748202 0.5770915 -0.3388673
v 0.7343112 0.6888011 -0.501137
v 0.7288028 0.6624339 -0.3188401
v 0.6727267 0.559788 -0.5216676
v 0.6672031 0.5334055 -0.3393708

vt 0.5607007 0.6190693
vt 0.5607007 0.6653384
vt 0.5934743 0.6190693
vt 0.5934743 0.6653384
vt 0.5862489 0.6469625
vt 0.5862489 0.6118751
vt 0.5534753 0.6469625
vt 0.5534753 0.6118751
vt 0.5242437 0.5824116
vt 0.5499312 0.5824116
vt 0.5242437 0.549638
vt 0.5499312 0.549638
vt 0.5575045 0.5837338
vt 0.5575045 0.6300029
vt 0.5902781 0.5837338
vt 0.5902781 0.6300029
vt 0.5718659 0.6244121
vt 0.5718659 0.5893247
vt 0.5390923 0.6244121
vt 0.5390923 0.5893247
vt 0.595533 0.5943855
vt 0.5492638 0.5943855
vt 0.595533 0.6271591
vt 0.5492638 0.6271591
vt 0.5617303 0.5975817
vt 0.5266429 0.5975817
vt 0.5617303 0.6303554
vt 0.5266429 0.6303554
vt 0.5919423 0.5816005
vt 0.5456734 0.5816005
vt 0.5919423 0.6143741
vt 0.5456734 0.6143741
vt 0.5781063 0.5863948
vt 0.5430189 0.5863948
vt 0.5781063 0.6191685
vt 0.5430189 0.6191685
vt 0.5598935 0.5943855
vt 0.5136245 0.5943855
vt 0.5598935 0.6271591
vt 0.5136245 0.6271591
vt 0.5973697 0.5975817
vt 0.5622823 0.5975817
vt 0.5973697 0.6303554
vt 0.5622823 0.6303554
vt 0.5454462 0.6007144
vt 0.5454462 0.6264019
vt 0.5782198 0.6007144
vt 0.5782198 0.6264019
vt 0.5475519 0.5893908
vt 0.5576223 0.6345506
vt 0.5732393 0.5893908
vt 0.5808761 0.623637
vt 0.573346 0.6457375
vt 0.5834164 0.6005777
vt 0.5500923 0.6348239
vt 0.557729 0.6005777
vt 0.5328753 0.5947277
vt 0.5611784 0.6313304
vt 0.556129 0.5838141
vt 0.5775922 0.6115711
vt 0.5617993 0.6297323
vt 0.5901024 0.5931296
vt 0.5453855 0.609973
vt 0.5668488 0.582216
vt 0.5350155 0.6110597
vt 0.5761883 0.6321697
vt 0.5514293 0.5913005
vt 0.582652 0.6073089
vt 0.5483876 0.6209828
vt 0.5895604 0.5998728
vt 0.5419239 0.596122
vt 0.5731466 0.5801136
vt 0.5292013 0.6125789
vt 0.5754421 0.6141961
vt 0.535665 0.587718
vt 0.5707309 0.5889444
vt 0.5235637 0.6189904
vt 0.5698045 0.6173732
vt 0.5282749 0.5937387
vt 0.5633408 0.5925123
vt 0.5310738 0.611482
vt 0.5736207 0.5932999
vt 0.5263627 0.5862303
vt 0.5586275 0.5724422
vt 0.5263007 0.6112931
vt 0.5688475 0.6294752
vt 0.5412939 0.5904354
vt 0.5735587 0.6042235
vt 0.5490638 0.5939413
vt 0.5591338 0.6391015
vt 0.5747507 0.5939417
vt 0.5823865 0.6281884
vt 0.5718347 0.6502882
vt 0.5819044 0.6051279
vt 0.5485814 0.6393749
vt 0.5562164 0.6051303
vt 0.5306882 0.5955025
vt 0.5589911 0.6321054
vt 0.5539405 0.584589
vt 0.5754054 0.6123465
vt 0.5639863 0.6305073
vt 0.5922896 0.5939047
vt 0.547573 0.6107475
vt 0.5690371 0.5829904
vt 0.5325747 0.6095394
vt 0.5737481 0.6306499
vt 0.5489887 0.5897809
vt 0.5802113 0.6057887
vt 0.5508287 0.6194636
vt 0.5920005 0.5983536
vt 0.5443648 0.5946014
vt 0.5755869 0.5785939
vt 0.5299934 0.6101667
vt 0.5762346 0.6117831
vt 0.5364575 0.5853052
vt 0.571522 0.5865303
vt 0.5227721 0.6165782
vt 0.5690124 0.6149608
vt 0.5274818 0.5913281
vt 0.5625486 0.5900998
vt 0.534909 0.6113802
vt 0.5774558 0.5931979
vt 0.530198 0.5861281
vt 0.5624633 0.5723417
vt 0.5224646 0.6111901
vt 0.5650117 0.6293719
vt 0.5374607 0.5903307
vt 0.5697234 0.6041209
vt 0.5469582 0.5916846
vt 0.5570285 0.6368445
vt 0.5726446 0.5916827
vt 0.5802824 0.625931
vt 0.5739398 0.6480312
vt 0.5840101 0.6028714
vt 0.5506859 0.6371177
vt 0.5583237 0.6028694
vt 0.5319569 0.594258
vt 0.5602604 0.6308608
vt 0.5552111 0.5833445
vt 0.5766736 0.6111003
vt 0.5627174 0.6292627
vt 0.5910208 0.5926598
vt 0.5463041 0.6095023
vt 0.5677667 0.5817463
vt 0.534384 0.610245
vt 0.5755559 0.6313548
vt 0.5507981 0.5904854
vt 0.5820209 0.6064961
vt 0.5490203 0.620168
vt 0.5901919 0.5990582
vt 0.5425552 0.5953087
vt 0.573778 0.5792985
vt 0.5313312 0.611572
vt 0.5775708 0.6131898
vt 0.5377944 0.5867116
vt 0.5728607 0.5879366
vt 0.5214349 0.6179841
vt 0.5676746 0.6163665
vt 0.5261449 0.592732
vt 0.5612107 0.5915059
vt 0.5308639 0.6124862
vt 0.5734107 0.5943039
vt 0.5261548 0.5872336
vt 0.558418 0.5734464
vt 0.5265106 0.6122972
vt 0.5690573 0.6304794
vt 0.5415037 0.5914397
vt 0.5737671 0.6052274
vt 0.5471225 0.5924718
vt 0.5571928 0.6376317
vt 0.5728097 0.5924712
vt 0.5804465 0.6267185
vt 0.5737755 0.6488186
vt 0.5838459 0.6036587
vt 0.5505215 0.6379055
vt 0.5581579 0.6036606
vt 0.5599077 0.6307811
vt 0.5548581 0.5832648
vt 0.5763212 0.6110213
vt 0.5630713 0.6291833
vt 0.5466565 0.6094233
vt 0.5681213 0.5816671
vt 0.5752713 0.6311327
vt 0.5817347 0.6062699
vt 0.5493044 0.6199458
vt 0.5904773 0.5988354
vt 0.5740609 0.5790758
vt 0.5774093 0.6128674
vt 0.5376316 0.5863895
vt 0.5215954 0.6176613
vt 0.5263089 0.5924099
vt 0.5613754 0.591184
vt 0.5316803 0.6126411
vt 0.5742273 0.5944595
vt 0.5269666 0.5873904
vt 0.5592311 0.5736021
vt 0.525695 0.612452
vt 0.5682417 0.6306341
vt 0.5406871 0.5915941
vt 0.5729544 0.6053818

vn -0.2893648 -0.1086694 0.3905162
vn 0.2893648 0.1086694 -0.3905162
vn -0.02432744 -0.4164016 -0.2721428
vn -0.2239449 0.09318083 0.4349827
vn 0.2239448 -0.09318084 -0.4349827
vn -0.1160908 0.2773746 0.3970266
vn 0.1160908 -0.2773746 -0.3970266
vn 0.01376079 0.4090103 0.2838399
vn -0.01376075 -0.4090102 -0.2838399
vn 0.1410048 0.4631446 0.11687
vn -0.1410048 -0.4631446 -0.11687
vn 0.2309353 -0.07724467 -0.4344491
vn 0.395361 -0.1815444 0.2424361
vn -0.395361 0.1815444 -0.2424361
vn -0.3710347 -0.02428014 -0.3313422
vn 0.3710372 0.02428917 0.3313388
vn -0.04225604 -0.4332273 0.2420175
vn -0.2823435 0.1688854 -0.3739035
vn 0.2823524 -0.1689017 0.3738894
vn -0.1401549 0.3300897 -0.3456028
vn 0.1401379 -0.3300891 0.3456104
vn 0.02861873 0.4287162 -0.2518478
vn -0.0285828 -0.4287213 0.2518432
vn 0.1919439 0.4461134 -0.1103823
vn -0.1919595 -0.4461173 0.1103395
vn 0.2916518 -0.1542325 0.3730892
vn -0.3073869 0.2135327 0.3285742
vn 0.3073908 -0.2135324 -0.3285706
vn -0.4615068 -0.06727134 0.1747282
vn 0.4615065 0.06726281 -0.1747323
vn 0.08766367 -0.4266218 -0.2415632
vn -0.4122369 0.1311734 0.2467757
vn 0.4122364 -0.1311744 -0.2467759
vn -0.2848343 0.3047855 0.2720645
vn 0.2848506 -0.3047788 -0.272055
vn -0.1034904 0.4206137 0.2458
vn -0.1035007 0.4206152 0.2457932
vn 0.103482 -0.420617 -0.2457981
vn 0.09748138 0.4567592 0.1729518
vn -0.09748415 -0.4567563 -0.1729577
vn 0.419245 -0.1158042 -0.2426251
vn 0.1867531 -0.1978319 0.4171687
vn -0.1867832 0.1978275 -0.4171574
vn -0.4974783 0.02032289 -0.01209266
vn 0.4974783 -0.02032408 0.01209294
vn 0.09033311 -0.4851145 -0.06743666
vn -0.4425522 0.2276166 0.0195496
vn 0.4425359 -0.2276509 -0.01951801
vn -0.3037491 0.3918223 0.0474943
vn 0.3037737 -0.3917995 -0.04752496
vn 0.3037508 -0.3918204 -0.0474986
vn -0.10742 0.4817581 0.0664378
vn 0.1074169 -0.4817533 -0.06647734
vn 0.1092985 0.4804099 0.07282854
vn -0.1092762 -0.4804136 -0.07283762
vn 0.4502339 -0.2122307 -0.01707231
vn -0.01489677 -0.0712871 0.4926867
vn 0.01490021 0.07128698 -0.4926866

usemtl Bananas
f 3/3/1 4/4/1 2/2/1 1/1/1
f 7/7/2 8/8/2 6/6/2 5/5/2
f 1/11/3 6/12/3 8/10/3 3/9/3
f 4/15/4 10/16/4 9/14/4 2/13/4
f 12/19/5 7/20/5 5/18/5 11/17/5
f 10/23/6 14/24/6 13/22/6 9/21/6
f 16/27/7 12/28/7 11/26/7 15/25/7
f 14/31/8 18/32/8 17/30/8 13/29/8
f 20/35/9 16/36/9 15/34/9 19/33/9
f 18/39/10 22/40/10 21/38/10 17/37/10
f 24/43/11 20/44/11 19/42/11 23/41/11
f 23/47/12 21/48/12 22/46/12 24/45/12
f 8/51/13 7/52/13 4/50/13 3/49/13
f 5/55/14 6/56/14 1/54/14 2/53/14
f 7/59/13 12/60/13 10/58/13 4/57/13
f 11/63/14 5/64/14 2/62/14 9/61/14
f 12/67/13 16/68/13 14/66/13 10/65/13
f 15/71/14 11/72/14 9/70/14 13/69/14
f 16/75/13 20/76/13 18/74/13 14/73/13
f 19/79/14 15/80/14 13/78/14 17/77/14
f 20/83/13 24/84/13 22/82/13 18/81/13
f 23/87/14 19/88/14 17/86/14 21/85/14
f 27/3/15 28/4/15 26/2/15 25/1/15
f 31/7/16 32/8/16 30/6/16 29/5/16
f 25/11/17 30/12/17 32/10/17 27/9/17
f 28/15/18 34/16/18 33/14/18 26/13/18
f 36/19/19 31/20/19 29/18/19 35/17/19
f 34/23/20 38/24/20 37/22/20 33/21/20
f 40/27/21 36/28/21 35/26/21 39/25/21
f 38/31/22 42/32/22 41/30/22 37/29/22
f 44/35/23 40/36/23 39/34/23 43/33/23
f 42/39/24 46/40/24 45/38/24 41/37/24
f 48/43/25 44/44/25 43/42/25 47/41/25
f 47/47/26 45/48/26 46/46/26 48/45/26
f 32/91/27 31/92/27 28/90/27 27/89/27
f 29/95/28 30/96/28 25/94/28 26/93/28
f 31/99/27 36/100/27 34/98/27 28/97/27
f 35/103/28 29/104/28 26/102/28 33/101/28
f 36/107/27 40/108/27 38/106/27 34/105/27
f 39/111/28 35/112/28 33/110/28 37/109/28
f 40/115/27 44/116/27 42/114/27 38/113/27
f 43/119/28 39/120/28 37/118/28 41/117/28
f 44/123/27 48/124/27 46/122/27 42/121/27
f 47/127/28 43/128/28 41/126/28 45/125/28
f 51/3/29 52/4/29 50/2/29 49/1/29
f 55/7/30 56/8/30 54/6/30 53/5/30
f 49/11/31 54/12/31 56/10/31 51/9/31
f 52/15/32 58/16/32 57/14/32 50/13/32
f 60/19/33 55/20/33 53/18/33 59/17/33
f 58/23/34 62/24/34 61/22/34 57/21/34
f 64/27/35 60/28/35 59/26/35 63/25/35
f 62/31/36 66/32/37 65/30/36 61/29/36
f 68/35/38 64/36/38 63/34/38 67/33/38
f 66/39/39 70/40/39 69/38/39 65/37/39
f 72/43/40 68/44/40 67/42/40 71/41/40
f 71/47/41 69/48/41 70/46/41 72/45/41
f 56/131/42 55/132/42 52/130/42 51/129/42
f 53/135/43 54/136/43 49/134/43 50/133/43
f 55/139/42 60/140/42 58/138/42 52/137/42
f 59/143/43 53/144/43 50/142/43 57/141/43
f 60/147/42 64/148/42 62/146/42 58/145/42
f 63/151/43 59/152/43 57/150/43 61/149/43
f 64/155/42 68/156/42 66/154/42 62/153/42
f 67/159/43 63/160/43 61/158/43 65/157/43
f 68/163/42 72/164/42 70/162/42 66/161/42
f 71/167/43 67/168/43 65/166/43 69/165/43
f 75/3/44 76/4/44 74/2/44 73/1/44
f 79/7/45 80/8/45 78/6/45 77/5/45
f 73/11/46 78/12/46 80/10/46 75/9/46
f 76/15/47 82/16/47 81/14/47 74/13/47
f 84/19/48 79/20/48 77/18/48 83/17/48
f 82/23/49 86/24/49 85/22/49 81/21/49
f 88/27/51 84/28/51 83/26/51 87/25/50
f 86/31/52 90/32/52 89/30/52 85/29/52
f 92/35/53 88/36/53 87/34/53 91/33/53
f 90/39/54 94/40/54 93/38/54 89/37/54
f 96/43/55 92/44/55 91/42/55 95/41/55
f 95/47/56 93/48/56 94/46/56 96/45/56
f 80/171/57 79/172/57 76/170/57 75/169/57
f 77/175/58 78/176/58 73/174/58 74/173/58
f 79/178/57 84/179/57 82/177/57 76/137/57
f 83/181/58 77/182/58 74/142/58 81/180/58
f 84/147/57 88/184/57 86/183/57 82/145/57
f 87/151/58 83/187/58 81/186/58 85/185/58
f 88/189/57 92/156/57 90/188/57 86/81/57
f 91/191/58 87/192/58 85/158/58 89/190/58
f 92/195/57 96/196/57 94/194/57 90/193/57
f 95/199/58 91/200/58 89/198/58 93/197/58

