# ProBuilder 4.5.0
# https://unity3d.com/unity/features/worldbuilding/probuilder
# 10/06/2021 22:54:50

mtllib ./BowlingPin.mtl
o BowlingPin

g Bowling pin
v 0 0 0
v -0.05930001 0.123125 4.212156E-07
v 0.03489361 0 0.08424063
v -0.007030769 0.123125 0.1261742
v 0.1191342 0 0.1191342
v 0.1191457 0.123125 0.1784381
v 0.2033749 0 0.08424063
v 0.2453079 0.123125 0.1261742
v 0.2382685 0 -1.041505E-08
v 0.29757 0.123125 4.212156E-07
v 0.2033749 0 -0.08424062
v 0.2453079 0.123125 -0.1261734
v 0.1191342 0 -0.1191342
v 0.1191457 0.123125 -0.1784373
v 0.03489363 0 -0.08424065
v -0.007030769 0.123125 -0.1261734
v 0.1191342 0 0
v 0.0836389 0.9674417 -6.804935E-07
v 0.1190965 0.9674417 -6.804935E-07
v 0.0940225 0.9674417 0.02507046
v 0.1190965 0.9674417 0.0354555
v 0.1441667 0.9674417 0.02507046
v 0.1545503 0.9674417 -6.804935E-07
v 0.1441667 0.9674417 -0.02507183
v 0.1190965 0.9674417 -0.03545686
v 0.0940225 0.9674417 -0.02507183
v 0.2740496 0.3891571 -0.154915
v 0.3382176 0.3891571 4.212156E-07
v 0.1191457 0.3891571 -0.2190848
v 0.2740496 0.3891571 0.1549159
v 0.1191457 0.3891571 0.2190857
v -0.03577247 0.3891571 0.1549159
v -0.09994756 0.3891571 4.212156E-07
v -0.03577247 0.3891571 -0.154915
v 0.1824612 0.6358172 -0.063324
v 0.2086953 0.6358172 4.212156E-07
v 0.1191386 0.6358172 -0.08955453
v 0.1824612 0.6358172 0.06332484
v 0.1191386 0.6358172 0.08955536
v 0.05581592 0.6358172 0.06332484
v 0.02958185 0.6358172 4.212156E-07
v 0.05581592 0.6358172 -0.063324
v 0.1921294 0.7107686 -0.07298951
v 0.2223629 0.7107686 4.212156E-07
v 0.1191386 0.7107686 -0.1032239
v 0.1921294 0.7107686 0.07299036
v 0.1191386 0.7107686 0.1032247
v 0.04614775 0.7107686 0.07299036
v 0.01591428 0.7107686 4.212156E-07
v 0.04614775 0.7107686 -0.07298951
v 0.2108903 0.8715743 -0.0917478
v 0.2488882 0.8715743 4.212156E-07
v 0.1191386 0.8715743 -0.1297519
v 0.2108903 0.8715743 0.09174775
v 0.1191386 0.8715743 0.1297518
v 0.0273868 0.8715743 0.09174775
v -0.01061106 0.8715743 4.212156E-07
v 0.0273868 0.8715743 -0.0917478
v 0.2018793 0.9169377 -0.08275673
v 0.2361543 0.9169377 2.731809E-07
v 0.1191194 0.9169377 -0.1170361
v 0.2018793 0.9169377 0.08275632
v 0.1191194 0.9169377 0.1170357
v 0.03635954 0.9169377 0.08275632
v 0.002084478 0.9169377 2.731809E-07
v 0.03635954 0.9169377 -0.08275673
v 0.1785562 0.9558745 -0.05945083
v 0.2031801 0.9558745 -2.036563E-07
v 0.1191041 0.9558745 -0.08407613
v 0.1785562 0.9558745 0.05944995
v 0.1191041 0.9558745 0.08407573
v 0.05965208 0.9558745 0.05944995
v 0.0350282 0.9558745 -2.036563E-07
v 0.05965208 0.9558745 -0.05945083

vt -0.1913417 0.1877948
vt -0.286582 0.7533913
vt 0.1913417 0.1877948
vt 0.2866031 0.7533813
vt -0.5 0
vt 0 0
vt -0.3535534 0.3535534
vt 0.1489721 -2.855994E-06
vt 0.1053926 0.1052194
vt 0 0.5
vt 0.0001583993 0.1488048
vt 0.3535534 0.3535534
vt -0.1050599 0.1052194
vt 0.5 -4.371139E-08
vt -0.1486393 -2.855994E-06
vt 0.3535534 -0.3535534
vt -0.1050599 -0.1052251
vt 0 -0.5
vt 0.0001583993 -0.1488105
vt -0.3535533 -0.3535534
vt 0.1053926 -0.1052251
vt 0.2865896 0.6083825
vt -0.2865842 0.6083825
vt 0.3518733 1.735974
vt -0.3518674 1.735974
vt 0.3518696 1.098671
vt -0.3518712 1.098671
vt 0.1438277 2.249289
vt -0.1438456 2.249281
vt 0.1438076 2.689094
vt -0.1438657 2.689094
vt 0.1657543 3.008096
vt -0.1658202 3.008093
vt 0.1657769 3.00931
vt -0.1657976 3.00931
vt 0.2083796 3.691998
vt -0.2084 3.691995
vt 0.2084057 3.41448
vt -0.208374 3.41448
vt 0.1880132 3.611168
vt -0.187924 3.611167
vt 0.2083744 3.414785
vt -0.208429 3.414785
vt 0.1879234 3.611189
vt -0.1880101 3.61119
vt 0.2084078 3.415205
vt -0.2083955 3.415205
vt 0.1879104 3.611866
vt -0.1880448 3.611865
vt 0.2084177 3.415512
vt -0.2083585 3.415512
vt 0.1879625 3.612162
vt -0.1879711 3.612161
vt 0.1880441 3.611881
vt -0.187911 3.611881
vt 0.1880088 2.751209
vt -0.1879284 2.751209
vt 0.1350947 2.958703
vt -0.1349719 2.958699
vt 0.1880252 2.75158
vt -0.18793 2.75158
vt 0.1351485 2.95905
vt -0.1349259 2.959051
vt 0.1879281 2.751256
vt -0.1880054 2.751256
vt 0.1349747 2.958747
vt -0.13509 2.95875
vt 0.1879307 2.751557
vt -0.1880245 2.751557
vt 0.1349274 2.959029
vt -0.1351479 2.959028
vt 0.1879093 2.752059
vt -0.1880459 2.752059
vt -0.1351609 2.959501
vt -0.1879758 2.752354
vt 0.1349933 2.959775
vt 0.1350686 2.959842
vt -0.1349981 2.959845
vt 0.1880452 2.752053
vt 0.6857364 0.1295056
vt 0.5851964 0.3801601
vt 0.8373837 0.2744536
vt 0.7949873 0.3801581
vt 0.3935318 0.5764098
vt 0.1452174 0.6826178
vt 0.3983244 0.786103
vt 0.2936133 0.830893
vt 0.5851775 -0.3801576
vt 0.6857175 -0.1295051
vt 0.7949682 -0.3801596
vt 0.8373648 -0.2744552
vt 0.145212 -0.6825921
vt 0.3935265 -0.5763822
vt 0.2936079 -0.8308693
vt 0.398319 -0.7860792
vt -0.393331 -0.5765131
vt -0.1450168 -0.6827238
vt -0.3980604 -0.7862116
vt -0.2933335 -0.8310023
vt -0.6858345 -0.1296498
vt -0.5852966 -0.3803032
vt -0.8374052 -0.2746004
vt -0.7950096 -0.3803052
vt -0.5852909 0.3802963
vt -0.6858288 0.1296409
vt -0.7950038 0.3802943
vt -0.8373995 0.2745895
vt -0.1450227 0.6827506
vt -0.3933368 0.5765418
vt -0.2933394 0.8310272
vt -0.3980663 0.7862364

vn -0.2146694 -0.1033873 -2.811936E-06
vn -0.1517928 -0.1033868 0.1517958
vn -1.133105E-06 -0.103395 0.2146657
vn 0.1517933 -0.1033953 0.1517896
vn 0.2146671 -0.103392 -3.713858E-07
vn 0.1517927 -0.1033921 -0.1517923
vn 1.36428E-06 -0.1033917 -0.2146672
vn -0.1517958 -0.1033837 -0.151795
vn 0 -0.2382685 0
vn 0 0.2382685 0
vn 0.2179709 -0.03330353 -0.09028523
vn 0.09029489 -0.03330358 -0.2179669
vn 0.2179708 -0.03330418 0.0902852
vn 0.09029486 -0.03330411 0.2179669
vn -0.09028617 -0.03330412 0.2179705
vn -0.2179665 -0.03330417 0.09029566
vn -0.2179666 -0.03330353 -0.0902957
vn -0.09028618 -0.03330357 -0.2179705
vn 0.198054 0.1040024 -0.0820365
vn 0.1980514 0.1039976 -0.08204886
vn 0.0820431 0.1040055 -0.1980496
vn 0.1980552 0.1039996 0.08203702
vn 0.1980518 0.104002 0.08204231
vn 0.08204326 0.1040047 0.19805
vn -0.0820372 0.1040028 0.1980535
vn -0.1980502 0.1040038 0.08204402
vn -0.1980506 0.1040029 -0.08204418
vn -0.08203704 0.1040036 -0.1980532
vn 0.2170653 -0.03959645 -0.08992594
vn 0.0899182 -0.03958843 -0.2170699
vn 0.2170674 -0.03958283 0.0899268
vn 0.08991799 -0.03959145 0.2170695
vn -0.08991819 -0.03958843 0.2170699
vn -0.2170653 -0.03959645 0.0899259
vn -0.2170674 -0.03958283 -0.08992679
vn -0.08991802 -0.03959145 -0.2170694
vn 0.2176177 -0.03590415 -0.09014039
vn 0.09014194 -0.03590021 -0.2176177
vn 0.2176188 -0.03589679 0.09014081
vn 0.09014188 -0.035901 0.2176176
vn -0.090142 -0.03589905 0.2176179
vn -0.2176178 -0.03590366 0.09014039
vn -0.2176188 -0.03589679 -0.0901408
vn -0.09014183 -0.03590218 -0.2176175
vn 0.2130856 0.05981906 -0.08825018
vn 0.08826447 0.05976945 -0.2130936
vn 0.2130862 0.05981536 0.08825126
vn 0.08826441 0.05977007 0.2130934
vn -0.08827125 0.05970116 0.2131099
vn -0.2131255 0.05965098 0.08826754
vn -0.213127 0.05964605 -0.0882673
vn -0.08827151 0.05969856 -0.2131105
vn 0.1733711 0.1468281 -0.07180426
vn 0.07181786 0.1468012 -0.1733882
vn 0.1733731 0.1468249 0.07180592
vn 0.07181738 0.1468028 0.1733871
vn -0.0718283 0.1467663 0.1734135
vn -0.1734313 0.1467444 0.07182999
vn -0.173435 0.1467396 -0.07183073
vn -0.07182822 0.1467666 -0.1734133
vn 0.05488605 0.2307436 -0.02273326
vn 0.02273688 0.2307416 -0.05489292
vn 0.05488496 0.2307439 0.022733
vn 0.02273662 0.230742 0.05489121
vn -0.02273968 0.23074 0.05489859
vn -0.0549059 0.230738 0.02274168
vn -0.05490558 0.2307381 -0.02274136
vn -0.02273998 0.2307395 -0.05490038

usemtl White
f 1/5/9 17/6/9 3/7/9
f 3/7/9 17/6/9 5/10/9
f 5/10/9 17/6/9 7/12/9
f 7/12/9 17/6/9 9/14/9
f 9/14/9 17/6/9 11/16/9
f 11/16/9 17/6/9 13/18/9
f 13/18/9 17/6/9 15/20/9
f 15/20/9 17/6/9 1/5/9
f 20/9/10 19/6/10 18/8/10
f 21/11/10 19/6/10 20/9/10
f 22/13/10 19/6/10 21/11/10
f 23/15/10 19/6/10 22/13/10
f 24/17/10 19/6/10 23/15/10
f 25/19/10 19/6/10 24/17/10
f 26/21/10 19/6/10 25/19/10
f 18/8/10 19/6/10 26/21/10
f 4/4/2 2/2/1 1/1/1
f 1/1/1 3/3/2 4/4/2
f 6/4/3 4/2/2 3/1/2
f 3/1/2 5/3/3 6/4/3
f 8/4/4 6/2/3 5/1/3
f 5/1/3 7/3/4 8/4/4
f 10/4/5 8/2/4 7/1/4
f 7/1/4 9/3/5 10/4/5
f 12/4/6 10/2/5 9/1/5
f 9/1/5 11/3/6 12/4/6
f 14/4/7 12/2/6 11/1/6
f 11/1/6 13/3/7 14/4/7
f 16/4/8 14/2/7 13/1/7
f 13/1/7 15/3/8 16/4/8
f 2/4/1 16/2/8 15/1/8
f 15/1/8 1/3/1 2/4/1
f 28/25/11 10/23/11 12/22/11
f 12/22/11 27/24/11 28/25/11
f 27/25/12 12/23/12 14/22/12
f 14/22/12 29/24/12 27/25/12
f 30/25/13 8/23/13 10/22/13
f 10/22/13 28/24/13 30/25/13
f 31/25/14 6/23/14 8/22/14
f 8/22/14 30/24/14 31/25/14
f 32/25/15 4/23/15 6/22/15
f 6/22/15 31/24/15 32/25/15
f 33/25/16 2/23/16 4/22/16
f 4/22/16 32/24/16 33/25/16
f 34/25/17 16/23/17 2/22/17
f 2/22/17 33/24/17 34/25/17
f 29/25/18 14/23/18 16/22/18
f 16/22/18 34/24/18 29/25/18
f 36/29/20 28/27/19 27/26/19
f 27/26/19 35/28/19 36/29/20
f 35/29/21 27/27/21 29/26/21
f 29/26/21 37/28/21 35/29/21
f 38/29/23 30/27/23 28/26/22
f 28/26/22 36/28/23 38/29/23
f 39/29/24 31/27/24 30/26/24
f 30/26/24 38/28/24 39/29/24
f 40/29/25 32/27/25 31/26/25
f 31/26/25 39/28/25 40/29/25
f 41/29/26 33/27/26 32/26/26
f 32/26/26 40/28/26 41/29/26
f 42/29/27 34/27/27 33/26/27
f 33/26/27 41/28/27 42/29/27
f 37/29/28 29/27/28 34/26/28
f 34/26/28 42/28/28 37/29/28
f 44/33/29 36/31/29 35/30/29
f 35/30/29 43/32/29 44/33/29
f 43/33/30 35/31/30 37/30/30
f 37/30/30 45/32/30 43/33/30
f 46/33/31 38/31/31 36/30/31
f 36/30/31 44/32/31 46/33/31
f 47/33/32 39/31/32 38/30/32
f 38/30/32 46/32/32 47/33/32
f 48/33/33 40/31/33 39/30/33
f 39/30/33 47/32/33 48/33/33
f 49/33/34 41/31/34 40/30/34
f 40/30/34 48/32/34 49/33/34
f 50/33/35 42/31/35 41/30/35
f 41/30/35 49/32/35 50/33/35
f 45/33/36 37/31/36 42/30/36
f 42/30/36 50/32/36 45/33/36
f 52/37/37 44/35/37 43/34/37
f 43/34/37 51/36/37 52/37/37
f 51/37/38 43/35/38 45/34/38
f 45/34/38 53/36/38 51/37/38
f 54/37/39 46/35/39 44/34/39
f 44/34/39 52/36/39 54/37/39
f 55/37/40 47/35/40 46/34/40
f 46/34/40 54/36/40 55/37/40
f 56/37/41 48/35/41 47/34/41
f 47/34/41 55/36/41 56/37/41
f 57/37/42 49/35/42 48/34/42
f 48/34/42 56/36/42 57/37/42
f 58/37/43 50/35/43 49/34/43
f 49/34/43 57/36/43 58/37/43
f 53/37/44 45/35/44 50/34/44
f 50/34/44 58/36/44 53/37/44
f 60/41/45 52/39/45 51/38/45
f 51/38/45 59/40/45 60/41/45
f 59/41/46 51/43/46 53/42/46
f 53/42/46 61/40/46 59/41/46
f 62/45/47 54/43/47 52/42/47
f 52/42/47 60/44/47 62/45/47
f 63/45/48 55/43/48 54/42/48
f 54/42/48 62/44/48 63/45/48
f 64/49/49 56/47/49 55/46/49
f 55/46/49 63/48/49 64/49/49
f 65/53/50 57/51/50 56/50/50
f 56/50/50 64/52/50 65/53/50
f 66/53/51 58/51/51 57/50/51
f 57/50/51 65/52/51 66/53/51
f 61/55/52 53/47/52 58/46/52
f 58/46/52 66/54/52 61/55/52
f 68/59/53 60/57/53 59/56/53
f 59/56/53 67/58/53 68/59/53
f 67/63/54 59/61/54 61/60/54
f 61/60/54 69/62/54 67/63/54
f 70/67/55 62/65/55 60/64/55
f 60/64/55 68/66/55 70/67/55
f 71/71/56 63/69/56 62/68/56
f 62/68/56 70/70/56 71/71/56
f 72/74/57 64/73/57 63/72/57
f 63/72/57 71/70/57 72/74/57
f 73/74/58 65/75/58 64/72/58
f 64/72/58 72/76/58 73/74/58
f 74/78/59 66/75/59 65/72/59
f 65/72/59 73/77/59 74/78/59
f 69/63/60 61/75/60 66/79/60
f 66/79/60 74/62/60 69/63/60
f 23/83/61 68/81/61 67/80/61
f 67/80/61 24/82/61 23/83/61
f 24/87/62 67/85/62 69/84/62
f 69/84/62 25/86/62 24/87/62
f 22/91/63 70/89/63 68/88/63
f 68/88/63 23/90/63 22/91/63
f 21/95/64 71/93/64 70/92/64
f 70/92/64 22/94/64 21/95/64
f 20/99/65 72/97/65 71/96/65
f 71/96/65 21/98/65 20/99/65
f 18/103/66 73/101/66 72/100/66
f 72/100/66 20/102/66 18/103/66
f 26/107/67 74/105/67 73/104/67
f 73/104/67 18/106/67 26/107/67
f 25/111/68 69/109/68 74/108/68
f 74/108/68 26/110/68 25/111/68

