# ProBuilder 4.5.0
# https://unity3d.com/unity/features/worldbuilding/probuilder
# 6/29/2021 1:57:51 AM

mtllib ./Fence.mtl
o Fence

g Fence
v -1.25 0 0
v -1.25 0 -6
v -1.25 0.5 0
v -1.25 0.5 -6
v 0.25 0 -6
v 0.25 0 0
v 0.25 0.5 -6
v 0.25 0.5 0
v -0.2495117 0 0
v -0.2495117 0.5 0
v -0.2495117 0 -6
v -0.2495117 0.5 -6
v -0.7496185 0 0
v -0.7496185 0.5 0
v -0.7496185 0.5 -6
v -0.7496185 0 -6
v -0.7496185 3.175195 -6
v -0.2495117 3.175195 -6
v -0.2495117 3.175195 0
v -0.7496185 3.175195 0
v -0.7496185 2.5001 -6
v -0.2495117 2.5001 -6
v -0.2495117 2.5001 0
v -0.7496185 2.5001 0
v 0.0005874634 2.5001 -6
v 0.0005874634 2.5001 0
v 0.0005874634 3.0002 -6
v 0.0005874634 3.0002 0
v -0.9997177 2.5001 0
v -0.9997177 2.5001 -6
v -0.9997177 3.0002 0
v -0.9997177 3.0002 -6

vt 0 0
vt -6 0
vt 0 0.5
vt -6 0.5
vt 6 0
vt 6 0.5
vt 0.25 0
vt -0.2495117 0
vt -0.2495117 0.5
vt 0.25 0.5
vt 0.2495117 0
vt -0.25 0
vt -0.25 0.5
vt 0.2495117 0.5
vt 0.2495117 -6
vt -0.25 -6
vt 0.25 -6
vt -0.2495117 -6
vt -0.7496185 0
vt -0.7496185 0.5
vt -1.25 0
vt -1.25 0.5
vt 0.7496185 0.5
vt 0.7496185 0
vt 1.25 0.5
vt 1.25 0
vt 1.25 -6
vt 0.7496185 -6
vt -1.25 -6
vt -0.7496185 -6
vt 0.7496185 2.5001
vt 0.2495117 2.5001
vt 6 2.5001
vt 0 2.5001
vt -6 2.5001
vt -0.2495117 2.5001
vt -0.7496185 2.5001
vt 0.7496185 3.175195
vt 0.2495117 3.175195
vt 6 3.0002
vt 0 3.0002
vt -6 3.0002
vt -0.2495117 3.175195
vt -0.7496185 3.175195
vt 0.0005874634 -6
vt 0.0005874634 0
vt -0.0005874634 3.0002
vt -0.0005874634 2.5001
vt 0.0005874634 2.5001
vt 0.0005874634 3.0002
vt 2.024773 0
vt 2.024773 -6
vt 1.719531 0
vt 1.719531 -6
vt -0.9997177 0
vt -0.9997177 -6
vt -0.9997177 3.0002
vt -0.9997177 2.5001
vt 0.9997177 2.5001
vt 0.9997177 3.0002
vt -1.20614 -6
vt -1.20614 0
vt -0.9008971 -6
vt -0.9008971 0

vn -1 0 0
vn 1 0 0
vn 0 0 1
vn 0 0 -1
vn 0 1 0
vn 0 -1 0
vn 0.5732991 0.8193462 0
vn -0.5732991 0.8193462 0

usemtl brickWall
f 3/3/1 4/4/1 2/2/1 1/1/1
f 7/6/2 8/3/2 6/1/2 5/5/2
f 8/10/3 10/9/3 9/8/3 6/7/3
f 11/11/4 12/14/4 7/13/4 5/12/4
f 10/11/5 8/12/5 7/16/5 12/15/5
f 5/17/6 6/7/6 9/8/6 11/18/6
f 10/9/3 14/20/3 13/19/3 9/8/3
f 14/20/3 3/22/3 1/21/3 13/19/3
f 16/24/4 15/23/4 12/14/4 11/11/4
f 2/26/4 4/25/4 15/23/4 16/24/4
f 3/26/5 14/24/5 15/28/5 4/27/5
f 20/24/5 19/11/5 18/15/5 17/28/5
f 16/30/6 13/19/6 1/21/6 2/29/6
f 11/18/6 9/8/6 13/19/6 16/30/6
f 17/38/4 18/39/4 22/32/4 21/31/4
f 27/40/2 28/41/2 26/34/2 25/33/2
f 31/41/1 32/42/1 30/35/1 29/34/1
f 19/43/3 20/44/3 24/37/3 23/36/3
f 25/45/6 26/46/6 23/8/6 22/18/6
f 27/47/4 25/48/4 22/32/4 18/39/4
f 26/49/3 28/50/3 19/43/3 23/36/3
f 28/53/7 27/54/7 18/52/7 19/51/7
f 29/55/6 30/56/6 21/30/6 24/19/6
f 31/57/3 29/58/3 24/37/3 20/44/3
f 30/59/4 32/60/4 17/38/4 21/31/4
f 32/63/8 31/64/8 20/62/8 17/61/8

usemtl whiteWall
f 21/31/4 22/32/4 12/14/4 15/23/4
f 22/33/2 23/34/2 10/3/2 12/6/2
f 24/34/1 21/35/1 15/4/1 14/3/1
f 23/36/3 24/37/3 14/20/3 10/9/3

