# ProBuilder 4.5.0
# https://unity3d.com/unity/features/worldbuilding/probuilder
# 21/05/2021 17:22:36

mtllib ./FridgeStand.mtl
o FridgeStand

g Fridge 2 animation
v 140.9446 160.8403 66.57606
v 138.9446 160.8403 66.57606
v 140.9446 161.0903 66.57606
v 138.9446 161.0903 66.57606
v 138.6945 160.8403 65.32596
v 138.6945 160.8403 65.07596
v 138.6945 161.0903 65.32596
v 138.6945 161.0903 65.07596
v 138.9446 160.8403 65.07596
v 140.9446 160.8403 65.07596
v 138.9446 161.0903 65.07596
v 140.9446 161.0903 65.07596
v 141.1947 160.8403 65.07596
v 141.1947 160.8403 65.32596
v 141.1947 161.0903 65.07596
v 141.1947 161.0903 65.32596
v 140.9446 167.055 66.48405
v 138.9446 167.055 66.48405
v 140.9446 167.055 65.07596
v 138.9446 167.055 65.07596
v 140.9446 160.8403 65.32596
v 138.9446 160.8403 65.32596
v 141.1947 161.0903 66.57606
v 141.1947 160.8403 66.57606
v 138.6945 160.8403 66.57606
v 138.6945 161.0903 66.57606
v 138.9446 161.0903 65.32596
v 140.9446 161.0903 65.32596
v 141.1947 167.055 66.48405
v 141.1947 167.055 65.07596
v 140.9446 168.0551 66.57606
v 140.9446 168.0551 66.48405
v 141.1947 168.0551 66.57606
v 141.1947 168.0551 66.48405
v 138.6945 167.055 65.07596
v 138.6945 167.055 66.48405
v 138.9446 168.0551 66.48405
v 138.9446 168.0551 66.57606
v 138.6945 168.0551 66.48405
v 138.6945 168.0551 66.57606
v 140.9446 162.0904 65.32596
v 138.9446 162.0904 65.32596
v 141.1947 162.0904 65.32596
v 141.1947 162.0904 66.57606
v 138.6945 162.0904 65.07596
v 138.9446 162.0904 65.07596
v 140.9446 162.0904 65.07596
v 138.9446 162.0904 66.57606
v 138.6945 162.0904 66.57606
v 138.6945 162.0904 65.32596
v 141.1947 162.0904 65.07596
v 140.9446 162.0904 66.57606
v 138.6945 162.1362 65.07596
v 138.9446 162.1362 65.07596
v 141.1947 162.1362 65.32596
v 141.1947 162.1362 66.57606
v 140.9446 162.1362 65.07596
v 141.1947 162.1362 65.07596
v 140.9446 162.1362 66.57606
v 138.9446 162.1362 66.57606
v 138.6945 162.1362 66.57606
v 138.6945 162.1362 65.32596
v 138.9446 162.1362 65.32596
v 140.9446 162.1362 65.32596
v 138.6945 163.5109 65.07596
v 138.9446 163.5109 65.07596
v 141.1947 163.5109 65.32596
v 141.1947 163.5109 66.57606
v 140.9446 163.5109 65.07596
v 141.1947 163.5109 65.07596
v 140.9446 163.5109 65.32596
v 138.9446 163.5109 65.32596
v 138.9446 163.5109 66.57606
v 138.6945 163.5109 66.57606
v 138.6945 163.5109 65.32596
v 140.9446 163.5109 66.57606
v 138.6945 163.5548 65.07596
v 138.9446 163.5548 65.07596
v 141.1947 163.5548 65.32596
v 141.1947 163.5548 66.57606
v 140.9446 163.5548 65.07596
v 141.1947 163.5548 65.07596
v 140.9446 163.5548 66.57606
v 138.9446 163.5548 66.57606
v 138.6945 163.5548 66.57606
v 138.6945 163.5548 65.32596
v 138.9446 163.5548 65.32596
v 140.9446 163.5548 65.32596
v 138.6945 165.2708 65.07596
v 138.9446 165.2708 65.07596
v 141.1947 165.2708 65.32596
v 141.1947 165.2708 66.57606
v 140.9446 165.2708 65.07596
v 141.1947 165.2708 65.07596
v 140.9446 165.2708 65.32596
v 138.9446 165.2708 65.32596
v 138.9446 165.2708 66.57606
v 138.6945 165.2708 66.57606
v 138.6945 165.2708 65.32596
v 140.9446 165.2708 66.57606
v 138.6945 165.3048 65.07596
v 138.9446 165.3048 65.07596
v 141.1947 165.3048 65.32596
v 141.1947 165.3048 66.57606
v 140.9446 165.3048 65.07596
v 141.1947 165.3048 65.07596
v 140.9446 165.3048 66.57606
v 138.9446 165.3048 66.57606
v 138.6945 165.3048 66.57606
v 138.6945 165.3048 65.32596
v 138.9446 165.3048 65.32596
v 140.9446 165.3048 65.32596
v 138.6945 166.8049 65.07596
v 138.9446 166.8049 65.07596
v 141.1947 166.8049 65.32596
v 141.1947 166.8049 66.57606
v 140.9446 166.8049 65.07596
v 141.1947 166.8049 65.07596
v 140.9446 166.8049 65.32596
v 138.9446 166.8049 65.32596
v 138.9446 166.8049 66.57606
v 138.6945 166.8049 66.57606
v 138.6945 166.8049 65.32596
v 140.9446 166.8049 66.57606
v 141.1947 167.055 66.57606
v 140.9446 167.055 66.57606
v 138.9446 167.055 66.57606
v 138.6945 167.055 66.57606

vt 0 0
vt -2 0
vt 0 0.25
vt -2 0.25
vt -0.75 0
vt -1 0
vt -0.75 0.25
vt -1 0.25
vt 2 0
vt 2 0.25
vt 1 0
vt 0.75 0
vt 1 0.25
vt 0.75 0.25
vt 0 0.4080963
vt 2 0.4080963
vt 0 -1
vt 2 -1
vt -2 -1
vt 0 -0.75
vt -2 -0.75
vt 0 0.5000992
vt -2 0.5000992
vt -0.5000992 0.25
vt -0.5000992 0
vt 0.5000992 0
vt 0.5000992 0.25
vt 2 -0.75
vt 2 0.5000992
vt -0.2500992 0.4080963
vt -0.2500992 -1
vt -0.2500992 0.5000992
vt 0.2500992 -0.75
vt 0.2500992 0.5000992
vt 0.2500992 0
vt 0.2500992 0.25
vt 0.2500992 -1
vt -0.2500992 0.25
vt -0.2500992 0
vt -2.250099 -0.75
vt -2.250099 -1
vt -2.250099 0.5000992
vt 2.250099 0
vt 2.250099 0.25
vt 2.250099 -1
vt 2.250099 0.4080963
vt 2.250099 0.5000992
vt -2.250099 0.25
vt -2.250099 0
vt 0 1.2501
vt -2 1.2501
vt 0.75 1.2501
vt -0.5000992 1.2501
vt 2.250099 1.2501
vt 2 1.2501
vt -2.250099 1.2501
vt -0.75 1.2501
vt -1 1.2501
vt 0.5000992 1.2501
vt -0.2500992 1.2501
vt 1 1.2501
vt 0.2500992 1.2501
vt 2.250099 1.295945
vt 2 1.295945
vt 0.75 1.295945
vt -0.5000992 1.295945
vt 0 1.295945
vt -0.2500992 1.295945
vt 1 1.295945
vt -2 1.295945
vt -2.250099 1.295945
vt -0.75 1.295945
vt -1 1.295945
vt 0.5000992 1.295945
vt 0.2500992 1.295945
vt 2.250099 2.670625
vt 2 2.670625
vt 0.75 2.670625
vt -0.5000992 2.670625
vt 0 2.670625
vt -0.2500992 2.670625
vt 1 2.670625
vt -2 2.670625
vt -2.250099 2.670625
vt -0.75 2.670625
vt -1 2.670625
vt 0.5000992 2.670625
vt 0.2500992 2.670625
vt 2.250099 2.714518
vt 2 2.714518
vt 0.75 2.714518
vt -0.5000992 2.714518
vt 0 2.714518
vt -0.2500992 2.714518
vt 1 2.714518
vt -2 2.714518
vt -2.250099 2.714518
vt -0.75 2.714518
vt -1 2.714518
vt 0.5000992 2.714518
vt 0.2500992 2.714518
vt 2.250099 4.430522
vt 2 4.430522
vt 0.75 4.430522
vt -0.5000992 4.430522
vt 0 4.430522
vt -0.2500992 4.430522
vt 1 4.430522
vt -2 4.430522
vt -2.250099 4.430522
vt -0.75 4.430522
vt -1 4.430522
vt 0.5000992 4.430522
vt 0.2500992 4.430522
vt 2.250099 4.464469
vt 2 4.464469
vt 0.75 4.464469
vt -0.5000992 4.464469
vt 0 4.464469
vt -0.2500992 4.464469
vt 1 4.464469
vt -2 4.464469
vt -2.250099 4.464469
vt -0.75 4.464469
vt -1 4.464469
vt 0.5000992 4.464469
vt 0.2500992 4.464469
vt 2.250099 5.96457
vt 2 5.96457
vt 0.75 5.96457
vt -0.5000992 5.96457
vt 0 5.96457
vt -0.2500992 5.96457
vt 1 5.96457
vt -2 5.96457
vt -2.250099 5.96457
vt -0.75 5.96457
vt -1 5.96457
vt 0.5000992 5.96457
vt 0.2500992 5.96457
vt 2.250099 6.21467
vt 2 6.21467
vt -0.4080963 6.21467
vt -0.5000992 6.21467
vt 0 6.21467
vt -0.2500992 6.21467
vt 1 6.21467
vt -2 6.21467
vt -2.250099 6.21467
vt 0.4080963 6.21467
vt -1 6.21467
vt 0.5000992 6.21467
vt 0.2500992 6.21467
vt 2 7.21477
vt 0 7.21477
vt 0.5000992 7.21477
vt 0.4080963 7.21477
vt -0.4080963 7.21477
vt -0.5000992 7.21477
vt -2 7.21477
vt 0.2500992 7.21477
vt -0.2500992 7.21477
vt 2.250099 7.21477
vt -2.250099 7.21477

vn 0 0 1
vn -1 0 0
vn 0 0 -1
vn 1 0 0
vn 0 1 0
vn 0 -1 0

usemtl steelBlue
f 3/3/1 4/4/1 2/2/1 1/1/1
f 7/7/2 8/8/2 6/6/2 5/5/2
f 11/10/3 12/3/3 10/1/3 9/9/3
f 15/13/4 16/14/4 14/12/4 13/11/4
f 19/17/5 20/18/5 18/16/5 17/15/5
f 21/20/6 22/21/6 9/19/6 10/17/6
f 1/22/6 2/23/6 22/21/6 21/20/6
f 23/24/4 24/25/4 14/12/4 16/14/4
f 25/26/2 26/27/2 7/7/2 5/5/2
f 4/29/5 3/22/5 28/20/5 27/28/5
f 29/30/5 30/31/5 19/17/5 17/15/5
f 33/32/5 34/30/5 32/15/5 31/22/5
f 14/33/6 24/34/6 1/22/6 21/20/6
f 24/35/1 23/36/1 3/3/1 1/1/1
f 13/37/6 14/33/6 21/20/6 10/17/6
f 15/38/3 13/39/3 10/1/3 12/3/3
f 5/40/6 6/41/6 9/19/6 22/21/6
f 25/42/6 5/40/6 22/21/6 2/23/6
f 6/43/3 8/44/3 11/10/3 9/9/3
f 35/45/5 36/46/5 18/16/5 20/18/5
f 39/46/5 40/47/5 38/29/5 37/16/5
f 26/48/1 25/49/1 2/2/1 4/4/1
f 41/50/1 42/51/1 27/4/1 28/3/1
f 43/52/4 44/53/4 23/24/4 16/14/4
f 45/54/3 46/55/3 11/10/3 8/44/3
f 46/55/3 47/50/3 12/3/3 11/10/3
f 48/51/1 49/56/1 26/48/1 4/4/1
f 50/57/2 45/58/2 8/8/2 7/7/2
f 42/52/4 48/53/4 4/24/4 27/14/4
f 49/59/2 50/57/2 7/7/2 26/27/2
f 47/50/3 51/60/3 15/38/3 12/3/3
f 51/61/4 43/52/4 16/14/4 15/13/4
f 52/59/2 41/57/2 28/7/2 3/27/2
f 44/62/1 52/50/1 3/3/1 23/36/1
f 53/63/3 54/64/3 46/55/3 45/54/3
f 55/65/4 56/66/4 44/53/4 43/52/4
f 57/67/3 58/68/3 51/60/3 47/50/3
f 58/69/4 55/65/4 43/52/4 51/61/4
f 59/67/1 60/70/1 48/51/1 52/50/1
f 54/64/3 57/67/3 47/50/3 46/55/3
f 60/70/1 61/71/1 49/56/1 48/51/1
f 62/72/2 53/73/2 45/58/2 50/57/2
f 63/65/4 60/66/4 48/53/4 42/52/4
f 61/74/2 62/72/2 50/57/2 49/59/2
f 59/74/2 64/72/2 41/57/2 52/59/2
f 56/75/1 59/67/1 52/50/1 44/62/1
f 65/76/3 66/77/3 54/64/3 53/63/3
f 67/78/4 68/79/4 56/66/4 55/65/4
f 69/80/3 70/81/3 58/68/3 57/67/3
f 70/82/4 67/78/4 55/65/4 58/69/4
f 71/80/1 72/83/1 63/70/1 64/67/1
f 66/77/3 69/80/3 57/67/3 54/64/3
f 73/83/1 74/84/1 61/71/1 60/70/1
f 75/85/2 65/86/2 53/73/2 62/72/2
f 72/78/4 73/79/4 60/66/4 63/65/4
f 74/87/2 75/85/2 62/72/2 61/74/2
f 76/87/2 71/85/2 64/72/2 59/74/2
f 68/88/1 76/80/1 59/67/1 56/75/1
f 77/89/3 78/90/3 66/77/3 65/76/3
f 79/91/4 80/92/4 68/79/4 67/78/4
f 81/93/3 82/94/3 70/81/3 69/80/3
f 82/95/4 79/91/4 67/78/4 70/82/4
f 83/93/1 84/96/1 73/83/1 76/80/1
f 78/90/3 81/93/3 69/80/3 66/77/3
f 84/96/1 85/97/1 74/84/1 73/83/1
f 86/98/2 77/99/2 65/86/2 75/85/2
f 87/91/4 84/92/4 73/79/4 72/78/4
f 85/100/2 86/98/2 75/85/2 74/87/2
f 83/100/2 88/98/2 71/85/2 76/87/2
f 80/101/1 83/93/1 76/80/1 68/88/1
f 89/102/3 90/103/3 78/90/3 77/89/3
f 91/104/4 92/105/4 80/92/4 79/91/4
f 93/106/3 94/107/3 82/94/3 81/93/3
f 94/108/4 91/104/4 79/91/4 82/95/4
f 95/106/1 96/109/1 87/96/1 88/93/1
f 90/103/3 93/106/3 81/93/3 78/90/3
f 97/109/1 98/110/1 85/97/1 84/96/1
f 99/111/2 89/112/2 77/99/2 86/98/2
f 96/104/4 97/105/4 84/92/4 87/91/4
f 98/113/2 99/111/2 86/98/2 85/100/2
f 100/113/2 95/111/2 88/98/2 83/100/2
f 92/114/1 100/106/1 83/93/1 80/101/1
f 101/115/3 102/116/3 90/103/3 89/102/3
f 103/117/4 104/118/4 92/105/4 91/104/4
f 105/119/3 106/120/3 94/107/3 93/106/3
f 106/121/4 103/117/4 91/104/4 94/108/4
f 107/119/1 108/122/1 97/109/1 100/106/1
f 102/116/3 105/119/3 93/106/3 90/103/3
f 108/122/1 109/123/1 98/110/1 97/109/1
f 110/124/2 101/125/2 89/112/2 99/111/2
f 111/117/4 108/118/4 97/105/4 96/104/4
f 109/126/2 110/124/2 99/111/2 98/113/2
f 107/126/2 112/124/2 95/111/2 100/113/2
f 104/127/1 107/119/1 100/106/1 92/114/1
f 113/128/3 114/129/3 102/116/3 101/115/3
f 115/130/4 116/131/4 104/118/4 103/117/4
f 117/132/3 118/133/3 106/120/3 105/119/3
f 118/134/4 115/130/4 103/117/4 106/121/4
f 119/132/1 120/135/1 111/122/1 112/119/1
f 114/129/3 117/132/3 105/119/3 102/116/3
f 121/135/1 122/136/1 109/123/1 108/122/1
f 123/137/2 113/138/2 101/125/2 110/124/2
f 120/130/4 121/131/4 108/118/4 111/117/4
f 122/139/2 123/137/2 110/124/2 109/126/2
f 124/139/2 119/137/2 112/124/2 107/126/2
f 116/140/1 124/132/1 107/119/1 104/127/1
f 35/141/3 20/142/3 114/129/3 113/128/3
f 29/143/4 125/144/4 116/131/4 115/130/4
f 19/145/3 30/146/3 118/133/3 117/132/3
f 30/147/4 29/143/4 115/130/4 118/134/4
f 126/145/1 127/148/1 121/135/1 124/132/1
f 20/142/3 19/145/3 117/132/3 114/129/3
f 127/148/1 128/149/1 122/136/1 121/135/1
f 36/150/2 35/151/2 113/138/2 123/137/2
f 18/143/4 127/144/4 121/131/4 120/130/4
f 128/152/2 36/150/2 123/137/2 122/139/2
f 126/152/2 17/150/2 119/137/2 124/139/2
f 125/153/1 126/145/1 124/132/1 116/140/1
f 124/22/6 121/23/6 120/21/6 119/20/6
f 126/144/4 124/131/4 119/130/4 17/143/4
f 121/139/2 127/152/2 18/150/2 120/137/2
f 38/29/5 31/22/5 32/15/5 37/16/5
f 52/22/6 48/23/6 42/21/6 41/20/6
f 59/66/4 52/53/4 41/52/4 64/65/4
f 48/59/2 60/74/2 63/72/2 42/57/2
f 60/29/5 59/22/5 64/20/5 63/28/5
f 76/22/6 73/23/6 72/21/6 71/20/6
f 83/92/4 76/79/4 71/78/4 88/91/4
f 73/87/2 84/100/2 87/98/2 72/85/2
f 84/29/5 83/22/5 88/20/5 87/28/5
f 100/22/6 97/23/6 96/21/6 95/20/6
f 107/118/4 100/105/4 95/104/4 112/117/4
f 97/113/2 108/126/2 111/124/2 96/111/2
f 108/29/5 107/22/5 112/20/5 111/28/5
f 37/154/3 32/155/3 17/145/3 18/142/3
f 38/156/2 37/157/2 18/150/2 127/152/2
f 32/158/4 31/159/4 126/144/4 17/143/4
f 31/155/1 38/160/1 127/148/1 126/145/1
f 31/156/2 32/157/2 17/150/2 126/152/2
f 33/161/1 31/155/1 126/145/1 125/153/1
f 32/155/3 34/162/3 29/146/3 17/145/3
f 34/158/4 33/159/4 125/144/4 29/143/4
f 37/158/4 38/159/4 127/144/4 18/143/4
f 39/163/3 37/154/3 18/142/3 36/141/3
f 38/160/1 40/164/1 128/149/1 127/148/1
f 40/156/2 39/157/2 36/150/2 128/152/2

