# ProBuilder 4.5.0
# https://unity3d.com/unity/features/worldbuilding/probuilder
# 21/05/2021 16:50:36

mtllib ./FridgeBox.mtl
o FridgeBox

g FridgeBox
v -51.96087 -0.2802997 -34.04863
v -48.22697 -0.2802992 -34.04865
v -51.96084 2.192204 -34.04863
v -48.22697 2.192204 -34.04865
v -48.22697 -0.2803063 -33.7985
v -48.22697 -0.2803059 -31.79849
v -48.22697 2.192197 -33.7985
v -48.22697 1.692197 -31.79849
v -48.22697 -0.2803063 -31.65608
v -51.96085 -0.2803068 -31.65607
v -48.22696 1.648708 -31.65608
v -51.96082 1.648707 -31.65607
v -51.96087 -0.2803063 -31.79848
v -51.96087 -0.2803068 -33.79848
v -51.96085 1.692197 -31.79848
v -51.96086 2.192196 -33.79848
v -51.82039 0.4426327 -33.79837
v -48.36742 0.4426332 -33.79839
v -51.82038 -0.05736684 -31.79838
v -48.36741 -0.05736662 -31.79839
v -48.22697 2.301398 -33.7985
v -51.96085 2.301398 -33.79848
v -48.22697 2.301405 -34.04865
v -51.96083 2.301405 -34.04863
v -51.82039 2.192487 -33.79841
v -48.36742 2.192488 -33.79843
v -51.82038 1.692487 -31.79841
v -48.36741 1.692488 -31.79843

vt -0.8860944 4.127025E-06
vt -3.375357 4.444917E-06
vt -0.8861097 1.64834
vt -3.375357 1.64834
vt -0.4166491 9.92913E-06
vt -1.749984 1.025258E-05
vt -0.4166491 1.648345
vt -1.749982 1.315012
vt 3.375354 -3.234545E-07
vt 0.8860957 -6.41346E-07
vt 3.375359 1.286009
vt 0.8861161 1.286009
vt 1.749995 6.504356E-06
vt 0.4166621 6.186464E-06
vt 1.749995 1.315009
vt 0.4166621 1.648342
vt 0.9797441 -0.2873994
vt 3.281726 -0.2873994
vt 0.979744 -1.661768
vt 3.281726 -1.661768
vt -0.8860856 -1.749999
vt -3.375347 -1.75
vt -0.8860906 -0.4166654
vt -3.375354 -0.4166654
vt -0.8860944 -0.249899
vt -3.375357 -0.249899
vt 0.2498249 1.648342
vt 0.2498249 6.850628E-06
vt -0.2498218 1.469752E-05
vt -0.2498218 1.64835
vt 3.375359 -0.4166138
vt 0.8861061 -0.4166138
vt 3.375358 -0.2498473
vt 0.88612 -0.2498473
vt -0.8860957 1.699965
vt -3.375359 1.699965
vt -0.8861008 1.700065
vt -3.375359 1.700065
vt 1.760925 1.356467
vt 0.4276954 1.690215
vt 1.760948 1.356564
vt -1.75001 1.315102
vt 3.375354 1.681632
vt 0.8860957 1.681632
vt -0.979744 1.70018
vt -3.281726 1.70018
vt 0.88754 -1.379048
vt 0.887905 -0.004679812
vt 0.9811833 -1.379072
vt 0.9815482 -0.004703404
vt 3.373548 -0.003545994
vt 3.373913 -1.377914
vt 3.279914 -0.003569587
vt 3.28028 -1.377938
vt 3.375359 1.682088
vt 0.8861008 1.682087
vt 3.281726 1.682187
vt 0.979744 1.682187
vt 0.979744 1.64852
vt 3.281726 1.648521
vt 0.979744 0.4819509
vt 3.281726 0.4819512
vt -0.4167112 1.648529
vt -1.750067 0.148626
vt -0.4167341 0.481959
vt 0.4167112 1.648529
vt 1.750045 1.315196
vt 0.4167341 0.4819593
vt 1.750067 0.1486262
vt -3.281726 1.315162
vt -0.979744 1.315161
vt -3.281726 0.1485918
vt -0.979744 0.1485917
vt -3.375354 -1.844939
vt -0.8860957 -1.844939
vt -1.750183 1.652297E-05
vt -1.845122 1.286026
vt -1.845122 1.619952E-05
vt 1.750093 6.502865E-06
vt 1.845034 6.184974E-06
vt 1.845034 1.286016
vt 0.8860958 -1.289627
vt 3.375354 -1.289627
vt 0.8861161 -1.388896
vt 3.375359 -1.388896
vt 3.375359 1.648335
vt 0.8860957 1.648335
vt 3.375359 1.721136
vt 0.8861059 1.721136
vt -0.2499231 1.721141
vt -0.4166896 1.721136
vt 0.4165913 1.72126
vt 0.2498249 1.721265
vt -0.8861198 1.721141
vt -3.375357 1.721141

vn -7.063149E-06 0 -1.5
vn 1.5 -4.556224E-06 1.788094E-07
vn 7.063149E-06 0 1.5
vn -1.5 1.15583E-05 1.363453E-06
vn 1.524666E-06 1.455214 0.3638031
vn 1.949115E-07 -1.5 3.576277E-07
vn -1.434567E-07 1.5 4.503414E-05
vn -6.907486E-06 0.3443587 -1.459937
vn -1.498016 0.07481383 0.01871048
vn 1.499056 -0.03649756 -0.009128622
vn 1.498112 -0.07299385 -0.0182555
vn 6.890995E-06 -0.3443587 1.459937
vn 6.899037E-06 -0.3445593 1.45989
vn -6.906639E-06 0.3451923 -1.459741
vn -6.926266E-06 0.3447429 -1.459847
vn -0.001591445 1.455213 0.3638029
vn 0.001598751 1.455213 0.3638029
vn 6.927186E-06 -0.3452111 1.459736
vn 1.994208E-06 1.434597 0.4380999

usemtl steelRed
f 3/3/1 4/4/1 2/2/1 1/1/1
f 7/7/2 8/8/2 6/6/2 5/5/2
f 11/11/3 12/12/3 10/10/3 9/9/3
f 15/15/4 16/16/4 14/14/4 13/13/4
f 19/19/5 20/20/5 18/18/5 17/17/5
f 14/23/6 5/24/6 6/22/6 13/21/6
f 1/25/6 2/26/6 5/24/6 14/23/6
f 3/27/4 1/28/4 14/14/4 16/16/4
f 2/29/2 4/30/2 7/7/2 5/5/2
f 23/33/7 24/34/7 22/32/7 21/31/7
f 16/37/8 7/38/8 7/36/8 16/35/8
f 15/41/9 16/40/9 16/40/9 15/39/9
f 7/7/10 8/42/11 8/8/10 7/7/2
f 8/43/13 15/44/13 15/44/13 8/43/12
f 25/45/15 26/46/8 7/38/15 16/37/14
f 27/49/16 25/50/16 16/48/16 15/47/16
f 26/53/17 28/54/17 8/52/17 7/51/17
f 28/57/13 27/58/18 15/56/13 8/55/13
f 17/61/3 18/62/3 26/60/3 25/59/3
f 19/64/2 17/65/2 25/63/2 27/42/2
f 18/68/4 20/69/4 28/67/4 26/66/4
f 20/72/1 19/73/1 27/71/1 28/70/1
f 9/74/6 10/75/6 13/21/6 6/22/6
f 11/77/2 9/78/2 6/76/2 8/42/2
f 10/80/4 12/81/4 15/67/4 13/79/4
f 12/84/19 11/85/19 8/83/19 15/82/19
f 21/88/3 22/89/3 16/87/3 7/86/3
f 23/90/2 21/91/2 7/7/2 4/30/2
f 22/92/4 24/93/4 3/27/4 16/16/4
f 24/94/1 23/95/1 4/4/1 3/3/1

