# ProBuilder 4.5.0
# https://unity3d.com/unity/features/worldbuilding/probuilder
# 21/05/2021 16:52:33

mtllib ./FridgeLid.mtl
o FridgeLid

g FridgeLid
v -51.96086 2.192138 -33.79847
v -48.21086 2.192134 -33.7985
v -51.96086 2.291907 -33.8598
v -48.21086 2.291903 -33.85983
v -48.21085 3.314199 -31.97291
v -48.21085 3.413967 -32.03424
v -51.96085 3.314203 -31.97289
v -51.96085 3.413971 -32.03422

vt -2.344092E-12 2.563075E-06
vt -3.75 2.563075E-06
vt -1.786614E-11 0.1171138
vt -3.75 0.1171138
vt -2.142836 2.563E-06
vt -2.142829 0.1171138
vt 3.749996 -0.000137036
vt 3.749996 0.1169742
vt -4.359612E-06 0.1169742
vt 2.142844 2.563E-06
vt 2.142836 0.1171138
vt 3.75 1.641096E-05
vt 0 -2.142836
vt 3.75 -2.142829
vt -3.75 -2.142836

vn -6.045949E-06 -0.5236887 -0.8519098
vn 1 0 -4.708766E-06
vn 6.045949E-06 0.5236887 0.8519098
vn -1 0 4.708766E-06
vn -2.465666E-06 0.8519439 -0.5236332
vn 2.465666E-06 -0.8519439 0.5236332

usemtl window
f 3/3/1 4/4/1 2/2/1 1/1/1
f 4/3/2 6/6/2 5/5/2 2/1/2
f 6/8/3 8/9/3 7/1/3 5/7/3
f 8/11/4 3/3/4 1/1/4 7/10/4
f 8/13/5 6/14/5 4/12/5 3/1/5
f 1/1/6 2/2/6 5/15/6 7/13/6

