# ProBuilder 4.2.3
# https://unity3d.com/unity/features/worldbuilding/probuilder
# 20/05/2021 21:03:16

mtllib ./LampPost.mtl
o LampPost

g LampPost
v -0.5 -5.897305 -2.487648
v 0.5 -5.897305 -2.487648
v -0.5 -4.647305 -2.487648
v 0.5 -4.647305 -2.487648
v 0.5 -5.897305 -1.487648
v 0.5 -4.647305 -1.487648
v -0.5 -5.897305 -1.487648
v -0.5 -4.647305 -1.487648
v -0.2368612 5.897305 -2.22451
v 0.2368612 5.897305 -2.22451
v -0.2368612 5.897305 -1.750786
v 0.2368612 5.897305 -1.750786
v -0.2368612 -4.397257 -2.22451
v 0.2368612 -4.397257 -2.22451
v -0.2368612 -4.397257 -1.750786
v 0.2368612 -4.397257 -1.750786
v -0.2368612 4.626092 -2.22451
v 0.2368612 4.626092 -2.22451
v -0.2368612 4.626092 -1.750786
v 0.2368612 4.626092 -1.750786
v -0.2368622 4.843036 -2.22451
v 0.2368622 4.843036 -2.22451
v -0.2368612 4.843036 -1.750786
v 0.2368612 4.843036 -1.750786
v 0.2368612 5.126092 2.487652
v -0.2368612 5.126092 2.487652
v 0.2368612 5.343036 2.487652
v -0.2368612 5.343036 2.487652
v 0.2368612 5.126092 1.237553
v -0.2368612 5.126092 1.237553
v 0.2368612 5.343036 1.237553
v -0.2368612 5.343036 1.237553
v 0.2108078 5.030924 1.306305
v -0.2108078 5.030924 1.306305
v 0.2108078 5.030924 2.4189
v -0.2108078 5.030924 2.4189

vt 0.5 -5.897305
vt -0.5 -5.897305
vt 0.5 -4.647305
vt -0.5 -4.647305
vt 2.487648 -5.897305
vt 1.487648 -5.897305
vt 2.487648 -4.647305
vt 1.487648 -4.647305
vt -1.487648 -5.897305
vt -2.487648 -5.897305
vt -1.487648 -4.647305
vt -2.487648 -4.647305
vt -0.2368612 2.22451
vt 0.2368612 2.22451
vt -0.2368612 1.750786
vt 0.2368612 1.750786
vt 0.5 1.487648
vt -0.5 1.487648
vt 0.5 2.487648
vt -0.5 2.487648
vt -0.5 5.004592
vt 0.5 5.004592
vt -0.2368612 4.641597
vt 0.2368612 4.641597
vt -3.563726 1.487648
vt -3.563726 2.487648
vt -3.20073 1.750786
vt -3.20073 2.22451
vt 3.563726 2.487648
vt 3.563726 1.487648
vt 3.20073 2.22451
vt 3.20073 1.750786
vt 0.5 -2.12287
vt -0.5 -2.12287
vt 0.2368612 -1.759875
vt -0.2368612 -1.759875
vt 0.2368612 -4.397257
vt -0.2368612 -4.397257
vt 0.2368612 4.626092
vt -0.2368612 4.626092
vt -1.750786 -4.397257
vt -2.22451 -4.397257
vt -1.750786 4.626092
vt -2.22451 4.626092
vt 2.22451 -4.397257
vt 1.750786 -4.397257
vt 2.22451 4.626092
vt 1.750786 4.626092
vt 0.2368622 4.843036
vt -0.2368622 4.843036
vt -1.750786 4.843036
vt -2.22451 4.843036
vt 2.22451 4.843037
vt 1.750786 4.843037
vt 0.2368612 5.126092
vt -0.2368612 5.126092
vt 0.2368612 5.343036
vt -0.2368612 5.343036
vt 0.2368612 5.897305
vt -0.2368612 5.897305
vt -1.750786 5.897305
vt -2.224511 5.897305
vt 2.224511 5.897305
vt 1.750786 5.897305
vt -0.2368612 0.96337
vt 0.2368612 0.96337
vt -0.2368612 -2.066509
vt 0.2368612 -2.066509
vt -1.237553 5.343036
vt -1.237553 5.126092
vt 1.237553 5.126092
vt 1.237553 5.343036
vt -0.2368612 0.9275693
vt 0.2368612 0.9275693
vt -0.2368612 -2.10231
vt 0.2368612 -2.10231
vt -0.2108078 -1.306305
vt 0.2108078 -1.306305
vt -0.2108078 -2.4189
vt 0.2108078 -2.4189
vt -2.487652 5.343036
vt -2.487652 5.126092
vt 2.487652 5.126092
vt 2.487652 5.343036
vt -0.2368612 -1.237553
vt 0.2368612 -1.237553
vt -0.2368612 -2.487652
vt 0.2368612 -2.487652
vt -0.2368612 3.430495
vt 0.2368612 3.430495
vt -0.2108078 3.31309
vt 0.2108078 3.31309
vt -2.487652 5.006709
vt -1.237553 5.006709
vt -2.4189 4.908039
vt -1.306305 4.908039
vt 1.237553 5.006709
vt 2.487652 5.006709
vt 1.306305 4.908039
vt 2.4189 4.908039
vt -0.2368612 5.611979
vt 0.2368612 5.611979
vt -0.2108078 5.494574
vt 0.2108078 5.494574

vn 0 0 -1
vn 1 1.220712E-11 0
vn 0 0 1
vn -1 -1.220712E-11 0
vn -1.220712E-11 1 0
vn 1.220712E-11 -1 0
vn -8.849037E-12 0.7249076 -0.6888461
vn -0.6888448 0.7249088 0
vn 0.6888448 0.7249088 0
vn -8.849037E-12 0.7249076 0.6888461
vn 1.203976E-11 -0.9862897 0.1650231
vn -1.203976E-11 0.9862897 -0.1650231
vn 7.148506E-12 -0.5856012 -0.8105993
vn 0.96451 -0.2640464 0
vn -0.96451 -0.2640464 0
vn 7.148506E-12 -0.5856012 0.8105993

usemtl steel
f 3/3/1 4/4/1 2/2/1 1/1/1
f 4/7/2 6/8/2 5/6/2 2/5/2
f 6/3/3 8/4/3 7/2/3 5/1/3
f 8/11/4 3/12/4 1/10/4 7/9/4
f 11/15/5 12/16/5 10/14/5 9/13/5
f 1/19/6 2/20/6 5/18/6 7/17/6
f 13/23/7 14/24/7 4/22/7 3/21/7
f 15/27/8 13/28/8 3/26/8 8/25/8
f 14/31/9 16/32/9 6/30/9 4/29/9
f 16/35/10 15/36/10 8/34/10 6/33/10
f 17/39/1 18/40/1 14/38/1 13/37/1
f 19/43/4 17/44/4 13/42/4 15/41/4
f 18/47/2 20/48/2 16/46/2 14/45/2
f 20/39/3 19/40/3 15/38/3 16/37/3
f 21/49/1 22/50/1 18/40/1 17/39/1
f 23/51/4 21/52/4 17/44/4 19/43/4
f 22/53/2 24/54/2 20/48/2 18/47/2
f 27/57/3 28/58/3 26/56/3 25/55/3
f 9/59/1 10/60/1 22/50/1 21/49/1
f 11/61/4 9/62/4 21/52/4 23/51/4
f 10/63/2 12/64/2 24/54/2 22/53/2
f 12/59/3 11/60/3 23/50/3 24/49/3
f 29/67/11 30/68/11 19/66/11 20/65/11
f 31/69/2 29/70/2 20/48/2 24/54/2
f 30/71/4 32/72/4 23/51/4 19/43/4
f 32/75/12 31/76/12 24/74/12 23/73/12
f 27/81/2 25/82/2 29/70/2 31/69/2
f 26/83/4 28/84/4 32/72/4 30/71/4
f 28/87/5 27/88/5 31/86/5 32/85/5

usemtl light
f 35/79/6 36/80/6 34/78/6 33/77/6
f 33/91/13 34/92/13 30/90/13 29/89/13
f 35/95/14 33/96/14 29/94/14 25/93/14
f 34/99/15 36/100/15 26/98/15 30/97/15
f 36/103/16 35/104/16 25/102/16 26/101/16

