# ProBuilder 4.5.0
# https://unity3d.com/unity/features/worldbuilding/probuilder
# 21/05/2021 15:14:41

mtllib ./metalRack.mtl
o metalRack

g shelf mid (2)
v -54.65 3.75 38.25029
v -57.4 3.75 38.25029
v -54.65 4 38.25029
v -57.4 4 38.25029
v -57.4 3.75 28.49999
v -57.4 3.75 28.24999
v -57.4 4 28.49999
v -57.4 4 28.24999
v -54.65 3.75 28.24999
v -54.65 4 28.24999
v -54.65 3.75 28.49999
v -54.65 4 28.49999
v -54.65 3.75 33.25009
v -57.4 3.75 33.25009
v -54.3999 4 28.49999
v -54.3999 3.75 28.49999
v -54.3999 4 33.25009
v -54.3999 3.75 33.25009
v -57.6501 3.75 28.49999
v -57.6501 4 28.49999
v -57.6501 3.75 33.25009
v -57.6501 4 33.25009
v -57.4 4 33.25009
v -54.65 4 33.25009
v -54.65 3.75 33.50019
v -57.4 3.75 33.50019
v -54.65 4 33.50019
v -57.4 4 33.50019
v -54.3999 4 33.50019
v -54.3999 3.75 33.50019
v -54.3999 4 38.25029
v -54.3999 3.75 38.25029
v -57.6501 3.75 33.50019
v -57.6501 4 33.50019
v -57.6501 3.75 38.25029
v -57.6501 4 38.25029
v -54.65 1.7498 38.25029
v -57.4 1.7498 38.25029
v -54.65 1.9998 38.25029
v -57.4 1.9998 38.25029
v -57.4 1.7498 28.49999
v -57.4 1.7498 28.24999
v -57.4 1.9998 28.49999
v -57.4 1.9998 28.24999
v -54.65 1.7498 28.24999
v -54.65 1.9998 28.24999
v -54.65 1.7498 28.49999
v -54.65 1.9998 28.49999
v -54.65 1.7498 33.25009
v -57.4 1.7498 33.25009
v -54.3999 1.9998 28.49999
v -54.3999 1.7498 28.49999
v -54.3999 1.9998 33.25009
v -54.3999 1.7498 33.25009
v -57.6501 1.7498 28.49999
v -57.6501 1.9998 28.49999
v -57.6501 1.7498 33.25009
v -57.6501 1.9998 33.25009
v -57.4 1.9998 33.25009
v -54.65 1.9998 33.25009
v -54.65 1.7498 33.50019
v -57.4 1.7498 33.50019
v -54.65 1.9998 33.50019
v -57.4 1.9998 33.50019
v -54.3999 1.9998 33.50019
v -54.3999 1.7498 33.50019
v -54.3999 1.9998 38.25029
v -54.3999 1.7498 38.25029
v -57.6501 1.7498 33.50019
v -57.6501 1.9998 33.50019
v -57.6501 1.7498 38.25029
v -57.6501 1.9998 38.25029
v -54.65 5.7503 38.25029
v -57.4 5.7503 38.25029
v -54.65 6.0003 38.25029
v -57.4 6.0003 38.25029
v -57.4 5.7503 28.49999
v -57.4 5.7503 28.24999
v -57.4 6.0003 28.49999
v -57.4 6.0003 28.24999
v -54.65 5.7503 28.24999
v -54.65 6.0003 28.24999
v -54.65 5.7503 28.49999
v -54.65 6.0003 28.49999
v -54.65 5.7503 33.25009
v -57.4 5.7503 33.25009
v -54.3999 6.0003 28.49999
v -54.3999 5.7503 28.49999
v -54.3999 6.0003 33.25009
v -54.3999 5.7503 33.25009
v -57.6501 5.7503 28.49999
v -57.6501 6.0003 28.49999
v -57.6501 5.7503 33.25009
v -57.6501 6.0003 33.25009
v -57.4 6.0003 33.25009
v -54.65 6.0003 33.25009
v -54.65 5.7503 33.50019
v -57.4 5.7503 33.50019
v -54.65 6.0003 33.50019
v -57.4 6.0003 33.50019
v -54.3999 6.0003 33.50019
v -54.3999 5.7503 33.50019
v -54.3999 6.0003 38.25029
v -54.3999 5.7503 38.25029
v -57.6501 5.7503 33.50019
v -57.6501 6.0003 33.50019
v -57.6501 5.7503 38.25029
v -57.6501 6.0003 38.25029
v -54.65 10 38.25029
v -57.4 10 38.25029
v -54.65 10.25 38.25029
v -57.4 10.25 38.25029
v -57.4 10 28.49999
v -57.4 10 28.24999
v -57.4 10.25 28.49999
v -57.4 10.25 28.24999
v -54.65 10 28.24999
v -54.65 10.25 28.24999
v -54.65 10 28.49999
v -54.65 10.25 28.49999
v -54.65 10 33.25009
v -57.4 10 33.25009
v -54.3999 10.25 28.49999
v -54.3999 10 28.49999
v -54.3999 10.25 33.25009
v -54.3999 10 33.25009
v -57.6501 10 28.49999
v -57.6501 10.25 28.49999
v -57.6501 10 33.25009
v -57.6501 10.25 33.25009
v -57.4 10.25 33.25009
v -54.65 10.25 33.25009
v -54.65 10 33.50019
v -57.4 10 33.50019
v -54.65 10.25 33.50019
v -57.4 10.25 33.50019
v -54.3999 10.25 33.50019
v -54.3999 10 33.50019
v -54.3999 10.25 38.25029
v -54.3999 10 38.25029
v -57.6501 10 33.50019
v -57.6501 10.25 33.50019
v -57.6501 10 38.25029
v -57.6501 10.25 38.25029
v -57.4 -0.25 38.49999
v -57.65 -0.25 38.49999
v -57.4 13.25 38.49999
v -57.65 13.25 38.49999
v -57.65 -0.25 38.24999
v -57.65 13.25 38.24999
v -57.4 -0.25 38.24999
v -57.4 13.25 38.24999
v -54.4 -0.25 38.49999
v -54.65 -0.25 38.49999
v -54.4 13.25 38.49999
v -54.65 13.25 38.49999
v -54.65 -0.25 38.24999
v -54.65 13.25 38.24999
v -54.4 -0.25 38.24999
v -54.4 13.25 38.24999
v -57.4 -0.25 33.49999
v -57.65 -0.25 33.49999
v -57.4 13.25 33.49999
v -57.65 13.25 33.49999
v -57.65 -0.25 33.24999
v -57.65 13.25 33.24999
v -57.4 -0.25 33.24999
v -57.4 13.25 33.24999
v -54.65 12.0003 38.25029
v -57.4 12.0003 38.25029
v -54.65 12.2503 38.25029
v -57.4 12.2503 38.25029
v -57.4 12.0003 28.49999
v -57.4 12.0003 28.24999
v -57.4 12.2503 28.49999
v -57.4 12.2503 28.24999
v -54.65 12.0003 28.24999
v -54.65 12.2503 28.24999
v -54.65 12.0003 28.49999
v -54.65 12.2503 28.49999
v -54.65 12.0003 33.25009
v -57.4 12.0003 33.25009
v -54.3999 12.2503 28.49999
v -54.3999 12.0003 28.49999
v -54.3999 12.2503 33.25009
v -54.3999 12.0003 33.25009
v -57.6501 12.0003 28.49999
v -57.6501 12.2503 28.49999
v -57.6501 12.0003 33.25009
v -57.6501 12.2503 33.25009
v -57.4 12.2503 33.25009
v -54.65 12.2503 33.25009
v -54.65 12.0003 33.50019
v -57.4 12.0003 33.50019
v -54.65 12.2503 33.50019
v -57.4 12.2503 33.50019
v -54.3999 12.2503 33.50019
v -54.3999 12.0003 33.50019
v -54.3999 12.2503 38.25029
v -54.3999 12.0003 38.25029
v -57.6501 12.0003 33.50019
v -57.6501 12.2503 33.50019
v -57.6501 12.0003 38.25029
v -57.6501 12.2503 38.25029
v -54.65 7.9998 38.25029
v -57.4 7.9998 38.25029
v -54.65 8.2498 38.25029
v -57.4 8.2498 38.25029
v -57.4 7.9998 28.49999
v -57.4 7.9998 28.24999
v -57.4 8.2498 28.49999
v -57.4 8.2498 28.24999
v -54.65 7.9998 28.24999
v -54.65 8.2498 28.24999
v -54.65 7.9998 28.49999
v -54.65 8.2498 28.49999
v -54.65 7.9998 33.25009
v -57.4 7.9998 33.25009
v -54.3999 8.2498 28.49999
v -54.3999 7.9998 28.49999
v -54.3999 8.2498 33.25009
v -54.3999 7.9998 33.25009
v -57.6501 7.9998 28.49999
v -57.6501 8.2498 28.49999
v -57.6501 7.9998 33.25009
v -57.6501 8.2498 33.25009
v -57.4 8.2498 33.25009
v -54.65 8.2498 33.25009
v -54.65 7.9998 33.50019
v -57.4 7.9998 33.50019
v -54.65 8.2498 33.50019
v -57.4 8.2498 33.50019
v -54.3999 8.2498 33.50019
v -54.3999 7.9998 33.50019
v -54.3999 8.2498 38.25029
v -54.3999 7.9998 38.25029
v -57.6501 7.9998 33.50019
v -57.6501 8.2498 33.50019
v -57.6501 7.9998 38.25029
v -57.6501 8.2498 38.25029
v -54.4 -0.25 33.49999
v -54.65 -0.25 33.49999
v -54.4 13.25 33.49999
v -54.65 13.25 33.49999
v -54.65 -0.25 33.24999
v -54.65 13.25 33.24999
v -54.4 -0.25 33.24999
v -54.4 13.25 33.24999

vt 0 0.75
vt -2.75 0.75
vt 0 1
vt -2.75 1
vt -0.75 0.75
vt -1 0.75
vt -0.75 1
vt -1 1
vt 2.75 0.75
vt 2.75 1
vt 1 0.75
vt 0.75 0.75
vt 1 1
vt 0.75 1
vt 0 -0.75
vt 2.75 -0.75
vt 0 -1
vt 2.75 -1
vt -2.75 -1
vt -2.75 -0.75
vt 0 4.000099
vt -2.75 4.000099
vt -4.000099 1
vt -4.000099 0.75
vt 4.000099 0.75
vt 4.000099 1
vt 2.75 4.000099
vt 0 4.250198
vt -2.75 4.250198
vt -4.250198 1
vt -4.250198 0.75
vt 4.250198 0.75
vt 4.250198 1
vt 2.75 4.250198
vt 0 9.000298
vt -2.75 9.000298
vt -9.000298 1
vt -9.000298 0.75
vt 9.000298 0.75
vt 9.000298 1
vt 2.75 9.000298
vt 3.000099 0.75
vt 3.000099 1
vt -3.000099 9.000298
vt -3.000099 4.250198
vt 3.000099 4.250198
vt 3.000099 9.000298
vt -3.000099 1
vt -3.000099 0.75
vt -3.000099 4.000099
vt -3.000099 -0.75
vt 3.000099 -0.75
vt 3.000099 4.000099
vt -0.2500992 1
vt -0.2500992 0.75
vt -0.2500992 4.000099
vt -0.2500992 -0.75
vt 0.2500992 -0.75
vt 0.2500992 4.000099
vt 0.2500992 0.75
vt 0.2500992 1
vt -0.2500992 9.000298
vt -0.2500992 4.250198
vt 0.2500992 4.250198
vt 0.2500992 9.000298
vt 0 0
vt -2.75 0
vt 0 0.25
vt -2.75 0.25
vt 0.25 0
vt 0.25 0.25
vt 2.75 0
vt 2.75 0.25
vt -0.25 0
vt -0.25 0.25
vt 0 5.000099
vt -2.75 5.000099
vt -5.000099 0.25
vt -5.000099 0
vt 5.000099 0
vt 5.000099 0.25
vt 2.75 5.000099
vt 0 5.250198
vt -2.75 5.250198
vt -5.250198 0.25
vt -5.250198 0
vt 5.250198 0
vt 5.250198 0.25
vt 2.75 5.250198
vt 0 10.0003
vt -2.75 10.0003
vt -10.0003 0.25
vt -10.0003 0
vt 10.0003 0
vt 10.0003 0.25
vt 2.75 10.0003
vt 3.000099 0
vt 3.000099 0.25
vt -3.000099 10.0003
vt -3.000099 5.250198
vt 3.000099 5.250198
vt 3.000099 10.0003
vt -3.000099 0.25
vt -3.000099 0
vt -3.000099 5.000099
vt 3.000099 5.000099
vt -0.2500992 5.000099
vt 0.2500992 5.000099
vt -0.2500992 10.0003
vt -0.2500992 5.250198
vt 0.2500992 5.250198
vt 0.2500992 10.0003
vt 0 13.5
vt -0.25 13.5
vt 0.25 13.5
vt 0 -0.25
vt 0.25 -0.25
vt -0.25 -0.25

vn 0 0 1
vn -1 0 0
vn 0 0 -1
vn 1 0 0
vn 0 1 0
vn 0 -1 0

usemtl jimmy_kimmel_live
f 3/3/1 4/4/1 2/2/1 1/1/1
f 7/7/2 8/8/2 6/6/2 5/5/2
f 8/10/3 10/3/3 9/1/3 6/9/3
f 10/13/4 12/14/4 11/12/4 9/11/4
f 10/17/5 8/18/5 7/16/5 12/15/5
f 11/15/6 5/20/6 6/19/6 9/17/6
f 13/21/6 14/22/6 5/20/6 11/15/6
f 17/23/4 18/24/4 16/12/4 15/14/4
f 21/25/2 22/26/2 20/7/2 19/5/2
f 23/27/5 24/21/5 12/15/5 7/16/5
f 25/28/6 26/29/6 14/22/6 13/21/6
f 27/30/4 25/31/4 13/24/4 24/23/4
f 26/32/2 28/33/2 23/26/2 14/25/2
f 28/34/5 27/28/5 24/21/5 23/27/5
f 1/35/6 2/36/6 26/29/6 25/28/6
f 31/37/4 32/38/4 30/31/4 29/30/4
f 35/39/2 36/40/2 34/33/2 33/32/2
f 4/41/5 3/35/5 27/28/5 28/34/5
f 33/42/3 34/43/3 28/10/3 26/9/3
f 35/44/6 33/45/6 26/29/6 2/36/6
f 34/46/5 36/47/5 4/41/5 28/34/5
f 36/48/1 35/49/1 2/2/1 4/4/1
f 19/42/3 20/43/3 7/10/3 5/9/3
f 21/50/6 19/51/6 5/20/6 14/22/6
f 20/52/5 22/53/5 23/27/5 7/16/5
f 22/48/1 21/49/1 14/2/1 23/4/1
f 15/54/3 16/55/3 11/1/3 12/3/3
f 17/56/5 15/57/5 12/15/5 24/21/5
f 16/58/6 18/59/6 13/21/6 11/15/6
f 18/60/1 17/61/1 24/3/1 13/1/1
f 29/54/3 30/55/3 25/1/3 27/3/3
f 31/62/5 29/63/5 27/28/5 3/35/5
f 30/64/6 32/65/6 1/35/6 25/28/6
f 32/60/1 31/61/1 3/3/1 1/1/1
f 39/3/1 40/4/1 38/2/1 37/1/1
f 43/7/2 44/8/2 42/6/2 41/5/2
f 44/10/3 46/3/3 45/1/3 42/9/3
f 46/13/4 48/14/4 47/12/4 45/11/4
f 46/17/5 44/18/5 43/16/5 48/15/5
f 47/15/6 41/20/6 42/19/6 45/17/6
f 49/21/6 50/22/6 41/20/6 47/15/6
f 53/23/4 54/24/4 52/12/4 51/14/4
f 57/25/2 58/26/2 56/7/2 55/5/2
f 59/27/5 60/21/5 48/15/5 43/16/5
f 61/28/6 62/29/6 50/22/6 49/21/6
f 63/30/4 61/31/4 49/24/4 60/23/4
f 62/32/2 64/33/2 59/26/2 50/25/2
f 64/34/5 63/28/5 60/21/5 59/27/5
f 37/35/6 38/36/6 62/29/6 61/28/6
f 67/37/4 68/38/4 66/31/4 65/30/4
f 71/39/2 72/40/2 70/33/2 69/32/2
f 40/41/5 39/35/5 63/28/5 64/34/5
f 69/42/3 70/43/3 64/10/3 62/9/3
f 71/44/6 69/45/6 62/29/6 38/36/6
f 70/46/5 72/47/5 40/41/5 64/34/5
f 72/48/1 71/49/1 38/2/1 40/4/1
f 55/42/3 56/43/3 43/10/3 41/9/3
f 57/50/6 55/51/6 41/20/6 50/22/6
f 56/52/5 58/53/5 59/27/5 43/16/5
f 58/48/1 57/49/1 50/2/1 59/4/1
f 51/54/3 52/55/3 47/1/3 48/3/3
f 53/56/5 51/57/5 48/15/5 60/21/5
f 52/58/6 54/59/6 49/21/6 47/15/6
f 54/60/1 53/61/1 60/3/1 49/1/1
f 65/54/3 66/55/3 61/1/3 63/3/3
f 67/62/5 65/63/5 63/28/5 39/35/5
f 66/64/6 68/65/6 37/35/6 61/28/6
f 68/60/1 67/61/1 39/3/1 37/1/1
f 75/68/1 76/69/1 74/67/1 73/66/1
f 79/71/2 80/68/2 78/66/2 77/70/2
f 80/73/3 82/68/3 81/66/3 78/72/3
f 82/68/4 84/75/4 83/74/4 81/66/4
f 82/66/5 80/72/5 79/73/5 84/68/5
f 83/68/6 77/69/6 78/67/6 81/66/6
f 85/76/6 86/77/6 77/69/6 83/68/6
f 89/78/4 90/79/4 88/74/4 87/75/4
f 93/80/2 94/81/2 92/71/2 91/70/2
f 95/82/5 96/76/5 84/68/5 79/73/5
f 97/83/6 98/84/6 86/77/6 85/76/6
f 99/85/4 97/86/4 85/79/4 96/78/4
f 98/87/2 100/88/2 95/81/2 86/80/2
f 100/89/5 99/83/5 96/76/5 95/82/5
f 73/90/6 74/91/6 98/84/6 97/83/6
f 103/92/4 104/93/4 102/86/4 101/85/4
f 107/94/2 108/95/2 106/88/2 105/87/2
f 76/96/5 75/90/5 99/83/5 100/89/5
f 105/97/3 106/98/3 100/73/3 98/72/3
f 107/99/6 105/100/6 98/84/6 74/91/6
f 106/101/5 108/102/5 76/96/5 100/89/5
f 108/103/1 107/104/1 74/67/1 76/69/1
f 91/97/3 92/98/3 79/73/3 77/72/3
f 93/105/6 91/103/6 77/69/6 86/77/6
f 92/98/5 94/106/5 95/82/5 79/73/5
f 94/103/1 93/104/1 86/67/1 95/69/1
f 87/75/3 88/74/3 83/66/3 84/68/3
f 89/107/5 87/75/5 84/68/5 96/76/5
f 88/71/6 90/108/6 85/76/6 83/68/6
f 90/70/1 89/71/1 96/68/1 85/66/1
f 101/75/3 102/74/3 97/66/3 99/68/3
f 103/109/5 101/110/5 99/83/5 75/90/5
f 102/111/6 104/112/6 73/90/6 97/83/6
f 104/70/1 103/71/1 75/68/1 73/66/1
f 111/3/1 112/4/1 110/2/1 109/1/1
f 115/7/2 116/8/2 114/6/2 113/5/2
f 116/10/3 118/3/3 117/1/3 114/9/3
f 118/13/4 120/14/4 119/12/4 117/11/4
f 118/17/5 116/18/5 115/16/5 120/15/5
f 119/15/6 113/20/6 114/19/6 117/17/6
f 121/21/6 122/22/6 113/20/6 119/15/6
f 125/23/4 126/24/4 124/12/4 123/14/4
f 129/25/2 130/26/2 128/7/2 127/5/2
f 131/27/5 132/21/5 120/15/5 115/16/5
f 133/28/6 134/29/6 122/22/6 121/21/6
f 135/30/4 133/31/4 121/24/4 132/23/4
f 134/32/2 136/33/2 131/26/2 122/25/2
f 136/34/5 135/28/5 132/21/5 131/27/5
f 109/35/6 110/36/6 134/29/6 133/28/6
f 139/37/4 140/38/4 138/31/4 137/30/4
f 143/39/2 144/40/2 142/33/2 141/32/2
f 112/41/5 111/35/5 135/28/5 136/34/5
f 141/42/3 142/43/3 136/10/3 134/9/3
f 143/44/6 141/45/6 134/29/6 110/36/6
f 142/46/5 144/47/5 112/41/5 136/34/5
f 144/48/1 143/49/1 110/2/1 112/4/1
f 127/42/3 128/43/3 115/10/3 113/9/3
f 129/50/6 127/51/6 113/20/6 122/22/6
f 128/52/5 130/53/5 131/27/5 115/16/5
f 130/48/1 129/49/1 122/2/1 131/4/1
f 123/54/3 124/55/3 119/1/3 120/3/3
f 125/56/5 123/57/5 120/15/5 132/21/5
f 124/58/6 126/59/6 121/21/6 119/15/6
f 126/60/1 125/61/1 132/3/1 121/1/1
f 137/54/3 138/55/3 133/1/3 135/3/3
f 139/62/5 137/63/5 135/28/5 111/35/5
f 138/64/6 140/65/6 109/35/6 133/28/6
f 140/60/1 139/61/1 111/3/1 109/1/1
f 171/68/1 172/69/1 170/67/1 169/66/1
f 175/71/2 176/68/2 174/66/2 173/70/2
f 176/73/3 178/68/3 177/66/3 174/72/3
f 178/68/4 180/75/4 179/74/4 177/66/4
f 178/66/5 176/72/5 175/73/5 180/68/5
f 179/68/6 173/69/6 174/67/6 177/66/6
f 181/76/6 182/77/6 173/69/6 179/68/6
f 185/78/4 186/79/4 184/74/4 183/75/4
f 189/80/2 190/81/2 188/71/2 187/70/2
f 191/82/5 192/76/5 180/68/5 175/73/5
f 193/83/6 194/84/6 182/77/6 181/76/6
f 195/85/4 193/86/4 181/79/4 192/78/4
f 194/87/2 196/88/2 191/81/2 182/80/2
f 196/89/5 195/83/5 192/76/5 191/82/5
f 169/90/6 170/91/6 194/84/6 193/83/6
f 199/92/4 200/93/4 198/86/4 197/85/4
f 203/94/2 204/95/2 202/88/2 201/87/2
f 172/96/5 171/90/5 195/83/5 196/89/5
f 201/97/3 202/98/3 196/73/3 194/72/3
f 203/99/6 201/100/6 194/84/6 170/91/6
f 202/101/5 204/102/5 172/96/5 196/89/5
f 204/103/1 203/104/1 170/67/1 172/69/1
f 187/97/3 188/98/3 175/73/3 173/72/3
f 189/105/6 187/103/6 173/69/6 182/77/6
f 188/98/5 190/106/5 191/82/5 175/73/5
f 190/103/1 189/104/1 182/67/1 191/69/1
f 183/75/3 184/74/3 179/66/3 180/68/3
f 185/107/5 183/75/5 180/68/5 192/76/5
f 184/71/6 186/108/6 181/76/6 179/68/6
f 186/70/1 185/71/1 192/68/1 181/66/1
f 197/75/3 198/74/3 193/66/3 195/68/3
f 199/109/5 197/110/5 195/83/5 171/90/5
f 198/111/6 200/112/6 169/90/6 193/83/6
f 200/70/1 199/71/1 171/68/1 169/66/1
f 207/3/1 208/4/1 206/2/1 205/1/1
f 211/7/2 212/8/2 210/6/2 209/5/2
f 212/10/3 214/3/3 213/1/3 210/9/3
f 214/13/4 216/14/4 215/12/4 213/11/4
f 214/17/5 212/18/5 211/16/5 216/15/5
f 215/15/6 209/20/6 210/19/6 213/17/6
f 217/21/6 218/22/6 209/20/6 215/15/6
f 221/23/4 222/24/4 220/12/4 219/14/4
f 225/25/2 226/26/2 224/7/2 223/5/2
f 227/27/5 228/21/5 216/15/5 211/16/5
f 229/28/6 230/29/6 218/22/6 217/21/6
f 231/30/4 229/31/4 217/24/4 228/23/4
f 230/32/2 232/33/2 227/26/2 218/25/2
f 232/34/5 231/28/5 228/21/5 227/27/5
f 205/35/6 206/36/6 230/29/6 229/28/6
f 235/37/4 236/38/4 234/31/4 233/30/4
f 239/39/2 240/40/2 238/33/2 237/32/2
f 208/41/5 207/35/5 231/28/5 232/34/5
f 237/42/3 238/43/3 232/10/3 230/9/3
f 239/44/6 237/45/6 230/29/6 206/36/6
f 238/46/5 240/47/5 208/41/5 232/34/5
f 240/48/1 239/49/1 206/2/1 208/4/1
f 223/42/3 224/43/3 211/10/3 209/9/3
f 225/50/6 223/51/6 209/20/6 218/22/6
f 224/52/5 226/53/5 227/27/5 211/16/5
f 226/48/1 225/49/1 218/2/1 227/4/1
f 219/54/3 220/55/3 215/1/3 216/3/3
f 221/56/5 219/57/5 216/15/5 228/21/5
f 220/58/6 222/59/6 217/21/6 215/15/6
f 222/60/1 221/61/1 228/3/1 217/1/1
f 233/54/3 234/55/3 229/1/3 231/3/3
f 235/62/5 233/63/5 231/28/5 207/35/5
f 234/64/6 236/65/6 205/35/6 229/28/6
f 236/60/1 235/61/1 207/3/1 205/1/1

usemtl tiles
f 147/113/1 148/114/1 146/74/1 145/66/1
f 148/113/2 150/114/2 149/74/2 146/66/2
f 150/115/3 152/113/3 151/66/3 149/70/3
f 152/115/4 147/113/4 145/66/4 151/70/4
f 152/116/5 150/117/5 148/70/5 147/66/5
f 145/66/6 146/74/6 149/118/6 151/116/6
f 155/113/1 156/114/1 154/74/1 153/66/1
f 156/113/2 158/114/2 157/74/2 154/66/2
f 158/115/3 160/113/3 159/66/3 157/70/3
f 160/115/4 155/113/4 153/66/4 159/70/4
f 160/116/5 158/117/5 156/70/5 155/66/5
f 153/66/6 154/74/6 157/118/6 159/116/6
f 163/113/1 164/114/1 162/74/1 161/66/1
f 164/113/2 166/114/2 165/74/2 162/66/2
f 166/115/3 168/113/3 167/66/3 165/70/3
f 168/115/4 163/113/4 161/66/4 167/70/4
f 168/116/5 166/117/5 164/70/5 163/66/5
f 161/66/6 162/74/6 165/118/6 167/116/6
f 243/113/1 244/114/1 242/74/1 241/66/1
f 244/113/2 246/114/2 245/74/2 242/66/2
f 246/115/3 248/113/3 247/66/3 245/70/3
f 248/115/4 243/113/4 241/66/4 247/70/4
f 248/116/5 246/117/5 244/70/5 243/66/5
f 241/66/6 242/74/6 245/118/6 247/116/6

