# ProBuilder 4.5.0
# https://unity3d.com/unity/features/worldbuilding/probuilder
# 21/05/2021 15:58:19

mtllib ./shelfObj.mtl
o shelfObj

g shelf
v 1.018221 -3.12535 5.125
v 0.7682147 -3.12535 5.125
v 1.018221 -2.12535 5.125
v 0.7682147 -2.12535 5.125
v -0.9384522 -3.12535 5.125
v -0.9384832 -3.12535 -5.428128
v -1.268203 -2.12535 5.125
v -1.268234 -2.12535 -5.428127
v 0.7681857 -3.12535 -5.428127
v 1.018193 -3.12535 -5.42813
v 0.7681857 -2.12535 -5.428127
v 1.018193 -2.12535 -5.42813
v 1.018221 3.12535 5.125
v 0.7682147 3.12535 5.125
v 1.018193 3.12535 -5.42813
v 0.7681857 3.12535 -5.428127
v 0.7681857 -1.875251 -5.428127
v 0.7682147 -1.875251 5.125
v -1.268234 -1.875251 -5.428127
v -1.268203 -1.875251 5.125
v 1.018193 -1.875251 -5.42813
v 1.018221 -1.875251 5.125
v 1.018221 -0.6251504 5.125
v 0.7682147 -0.6251504 5.125
v 1.018193 -0.6251504 -5.42813
v 0.7681857 -0.6251504 -5.428127
v 1.018221 -0.3750503 5.125
v 0.7682147 -0.3750503 5.125
v 1.018193 -0.3750503 -5.42813
v -0.7318854 -0.6251504 5.125
v -0.7319174 -0.6251504 -5.428126
v -0.7318854 -0.3750503 5.125
v -0.7319174 -0.3750503 -5.428126
v 0.7681857 -0.3750503 -5.428127
v 1.018221 1.12505 5.125
v 0.7682147 1.12505 5.125
v 1.018193 1.12505 -5.42813
v 0.7681857 1.12505 -5.428127
v 1.018221 1.37515 5.125
v 0.7682147 1.37515 5.125
v 1.018193 1.37515 -5.42813
v -0.7318854 1.12505 5.125
v -0.7319174 1.12505 -5.428126
v -0.7318854 1.37515 5.125
v -0.7319174 1.37515 -5.428126
v 0.7681857 1.37515 -5.428127
v 1.018221 2.87525 5.125
v 0.7682147 2.87525 5.125
v 1.018193 2.87525 -5.42813
v 0.7681857 2.87525 -5.428127
v -0.7318854 2.87525 5.125
v -0.7319174 2.87525 -5.428126
v -0.7318854 3.12535 5.125
v -0.7319174 3.12535 -5.428126

vt 1.018221 -3.12535
vt 0.7682147 -3.12535
vt 1.018221 -2.12535
vt 0.7682147 -2.12535
vt 5.124997 -2.674248
vt -5.428131 -2.674248
vt 5.124996 -1.621283
vt -5.428131 -1.621283
vt -0.7682478 -3.12535
vt -1.018255 -3.12535
vt -0.7682478 -2.12535
vt -1.018255 -2.12535
vt 5.428127 -3.12535
vt -5.125003 -3.12535
vt 5.428127 -2.12535
vt -5.125003 -2.12535
vt -1.018221 5.125
vt -0.7682147 5.125
vt -1.018193 -5.42813
vt -0.7681857 -5.428127
vt 1.018193 -5.42813
vt 0.7681857 -5.428127
vt 1.018221 5.125
vt 0.7682147 5.125
vt -0.9384522 5.125
vt -0.9384832 -5.428128
vt -1.268203 -2.12535
vt -0.9384522 -3.12535
vt 0.9384863 -3.12535
vt 1.268237 -2.12535
vt 1.268234 -5.428127
vt 1.268203 5.125
vt -0.7682478 -1.875251
vt -1.018255 -1.875251
vt 1.268234 -1.875251
vt 0.7682147 -1.875251
vt -1.268203 -1.875251
vt 5.124996 -2.12535
vt -5.428131 -2.12535
vt 5.124996 -1.875251
vt -5.428131 -1.875251
vt 1.018221 -1.875251
vt 5.428127 -1.875251
vt -5.125003 -1.875251
vt 1.018221 -0.6251504
vt 0.7682147 -0.6251504
vt 5.428127 -0.6251504
vt -5.125003 -0.6251504
vt 5.125002 -1.875251
vt 5.125002 -0.6251504
vt -5.428125 -0.6251504
vt -0.7682478 -0.6251504
vt -1.018255 -0.6251504
vt 1.018221 -0.3750503
vt 0.7682147 -0.3750503
vt 5.428127 -0.3750503
vt -5.125003 -0.3750503
vt 5.124998 -0.6251504
vt 5.124998 -0.3750503
vt -5.428128 -0.3750503
vt -0.7682478 -0.3750503
vt -1.018255 -0.3750503
vt -0.7318854 5.125
vt -0.7319174 -5.428126
vt -0.7318854 -0.3750503
vt -0.7318854 -0.6251504
vt 0.7319139 -0.6251504
vt 0.7319139 -0.3750503
vt 0.7319174 -5.428126
vt 0.7318854 5.125
vt 1.018221 1.12505
vt 0.7682147 1.12505
vt 5.428127 1.12505
vt -5.125003 1.12505
vt 5.125002 -0.3750503
vt 5.125002 1.12505
vt -5.428125 1.12505
vt -0.7682478 1.12505
vt -1.018255 1.12505
vt 1.018221 1.37515
vt 0.7682147 1.37515
vt 5.428127 1.37515
vt -5.125003 1.37515
vt 5.124998 1.12505
vt 5.124998 1.37515
vt -5.428128 1.37515
vt -0.7682478 1.37515
vt -1.018255 1.37515
vt -0.7318854 1.37515
vt -0.7318854 1.12505
vt 0.7319139 1.12505
vt 0.7319139 1.37515
vt 1.018221 2.87525
vt 0.7682147 2.87525
vt 5.428127 2.87525
vt -5.125003 2.87525
vt 5.125002 1.37515
vt 5.125002 2.87525
vt -5.428125 2.87525
vt -0.7682478 2.87525
vt -1.018255 2.87525
vt 1.018221 3.12535
vt 0.7682147 3.12535
vt 5.428127 3.12535
vt -5.125003 3.12535
vt 5.124998 2.87525
vt 5.124998 3.12535
vt -5.428128 3.12535
vt -0.7682478 3.12535
vt -1.018255 3.12535
vt -0.7318854 3.12535
vt -0.7318854 2.87525
vt 0.7319139 2.87525
vt 0.7319139 3.12535

vn 0 0 1
vn -0.949699 -0.3131642 2.789255E-06
vn -1.144375E-05 0 -1
vn 1 0 -2.620697E-06
vn 0 1 0
vn 0 -1 0
vn -1 0 2.869212E-06

usemtl wood
f 3/3/1 4/4/1 2/2/1 1/1/1
f 7/7/2 8/8/2 6/6/2 5/5/2
f 11/11/3 12/12/3 10/10/3 9/9/3
f 12/15/4 3/16/4 1/14/4 10/13/4
f 15/19/5 16/20/5 14/18/5 13/17/5
f 1/23/6 2/24/6 9/22/6 10/21/6
f 5/25/6 6/26/6 9/22/6 2/24/6
f 7/27/1 5/28/1 2/2/1 4/4/1
f 6/29/3 8/30/3 11/11/3 9/9/3
f 19/31/5 20/32/5 18/18/5 17/20/5
f 17/33/3 21/34/3 12/12/3 11/11/3
f 19/35/3 17/33/3 11/11/3 8/30/3
f 18/36/1 20/37/1 7/27/1 4/4/1
f 20/40/7 19/41/7 8/39/7 7/38/7
f 22/42/1 18/36/1 4/4/1 3/3/1
f 21/43/4 22/44/4 3/16/4 12/15/4
f 23/45/1 24/46/1 18/36/1 22/42/1
f 25/47/4 23/48/4 22/44/4 21/43/4
f 24/50/7 26/51/7 17/41/7 18/49/7
f 26/52/3 25/53/3 21/34/3 17/33/3
f 27/54/1 28/55/1 24/46/1 23/45/1
f 29/56/4 27/57/4 23/48/4 25/47/4
f 32/59/7 33/60/7 31/51/7 30/58/7
f 34/61/3 29/62/3 25/53/3 26/52/3
f 30/63/6 31/64/6 26/22/6 24/24/6
f 32/65/1 30/66/1 24/46/1 28/55/1
f 31/67/3 33/68/3 34/61/3 26/52/3
f 33/69/5 32/70/5 28/18/5 34/20/5
f 35/71/1 36/72/1 28/55/1 27/54/1
f 37/73/4 35/74/4 27/57/4 29/56/4
f 36/76/7 38/77/7 34/60/7 28/75/7
f 38/78/3 37/79/3 29/62/3 34/61/3
f 39/80/1 40/81/1 36/72/1 35/71/1
f 41/82/4 39/83/4 35/74/4 37/73/4
f 44/85/7 45/86/7 43/77/7 42/84/7
f 46/87/3 41/88/3 37/79/3 38/78/3
f 42/63/6 43/64/6 38/22/6 36/24/6
f 44/89/1 42/90/1 36/72/1 40/81/1
f 43/91/3 45/92/3 46/87/3 38/78/3
f 45/69/5 44/70/5 40/18/5 46/20/5
f 47/93/1 48/94/1 40/81/1 39/80/1
f 49/95/4 47/96/4 39/83/4 41/82/4
f 48/98/7 50/99/7 46/86/7 40/97/7
f 50/100/3 49/101/3 41/88/3 46/87/3
f 13/102/1 14/103/1 48/94/1 47/93/1
f 15/104/4 13/105/4 47/96/4 49/95/4
f 53/107/7 54/108/7 52/99/7 51/106/7
f 16/109/3 15/110/3 49/101/3 50/100/3
f 51/63/6 52/64/6 50/22/6 48/24/6
f 53/111/1 51/112/1 48/94/1 14/103/1
f 52/113/3 54/114/3 16/109/3 50/100/3
f 54/69/5 53/70/5 14/18/5 16/20/5

