# ProBuilder 4.5.0
# https://unity3d.com/unity/features/worldbuilding/probuilder
# 21/05/2021 20:13:43

mtllib ./smallShelfObj.mtl
o smallShelfObj

g smallShelf
v -10.11459 -0.2753509 -36.31195
v -10.11459 -0.2753509 -32.31195
v -9.864587 0.724649 -36.56195
v -9.864591 0.724649 -32.06195
v -11.61459 -0.2753509 -32.31196
v -11.61459 0.724649 -32.06196
v -11.86469 -0.275351 -32.31196
v -11.86469 -0.275351 -36.31196
v -11.86469 0.724649 -32.06196
v -11.86469 0.724649 -36.56196
v -11.61459 -0.2753509 -36.31196
v -11.61459 0.724649 -36.56196
v -9.864587 0.974749 -36.56195
v -9.864591 0.974749 -32.06195
v -11.61459 0.974749 -36.56196
v -11.61459 0.974749 -32.06196
v -11.86469 0.974749 -32.06196
v -11.86469 0.974749 -36.56196
v -11.61459 2.474949 -36.56196
v -11.61459 2.474949 -32.06196
v -11.86469 2.474949 -36.56196
v -11.86469 2.474949 -32.06196
v -11.61459 2.224849 -36.56196
v -11.61459 2.224849 -32.06196
v -11.86469 2.224849 -36.56196
v -11.86469 2.224849 -32.06196
v -10.11449 2.224849 -36.56196
v -10.11449 2.224849 -32.06196
v -10.11449 2.474949 -36.56196
v -10.11449 2.474949 -32.06196

vt 1.999998 -0.4244738
vt -2.000002 -0.4244738
vt 2.249998 0.6063026
vt -2.250002 0.6063027
vt 0.7500585 -0.121319
vt -0.7499406 -0.121319
vt 1.00006 0.909457
vt -0.7499393 0.9094573
vt 1.999997 -0.6250502
vt -2.000003 -0.6250502
vt 2.249997 0.3749498
vt -2.250003 0.3749498
vt 0.7499583 -0.121316
vt -0.7500417 -0.121316
vt 0.7499596 0.9094604
vt -1.000041 0.9094607
vt -2.25 1.000046
vt 2.25 1.000055
vt -2.250003 -0.7499546
vt 2.249997 -0.7499443
vt 2.000003 -0.7499539
vt -1.999997 -0.749945
vt 2 0.7500462
vt -2 0.7500541
vt 2.249998 0.62505
vt -2.250002 0.62505
vt 0.749958 0.37495
vt -1.000042 0.37495
vt 0.749958 0.62505
vt -1.000042 0.62505
vt 1.000058 0.37495
vt -0.7499409 0.37495
vt 1.000058 0.62505
vt -0.7499409 0.62505
vt -2 -1.000045
vt 2 -1.000054
vt -1.000064 -0.1213188
vt 1.000035 -0.1213139
vt -2.25 -1.000055
vt 2.25 -1.000044
vt 2.250005 0.6250499
vt -2.249995 0.6250499
vt 2.250002 1.87515
vt -2.249998 1.87515
vt 1.000033 1.875149
vt 0.7499329 1.875149
vt -0.7499656 1.875154
vt -1.000066 1.875154
vt 2.249998 1.87515
vt -2.250002 1.87515
vt 2.250003 2.12525
vt -2.249997 2.12525
vt 1.000048 2.12525
vt 0.749948 2.12525
vt -0.7499506 2.12525
vt -1.000051 2.12525
vt 2.249998 2.12525
vt -2.250002 2.12525
vt 2.25 -0.7499544
vt -2.25 -0.7499442
vt 2.250005 0.7501457
vt -2.249995 0.750156
vt -0.7501522 2.12525
vt -0.7501522 1.87515
vt 0.7501495 1.87515
vt 0.7501495 2.12525
vt 2.249995 0.750156
vt -2.250005 0.7501457

vn 0.9701425 -0.2425355 9.252002E-07
vn -4.992228E-06 -0.2425345 0.9701428
vn -1 1.639128E-07 -7.152557E-07
vn 4.992225E-06 -0.2425356 -0.9701425
vn 0 1 0
vn 0 -1 0
vn 1 0 8.543334E-07
vn 4.419258E-06 0 -1
vn -4.419259E-06 0 1

usemtl wood
f 3/3/1 4/4/1 2/2/1 1/1/1
f 4/7/2 6/8/2 5/6/2 2/5/2
f 9/11/3 10/12/3 8/10/3 7/9/3
f 12/15/4 3/16/4 1/14/4 11/13/4
f 15/19/5 16/20/5 14/18/5 13/17/5
f 1/23/6 2/24/6 5/22/6 11/21/6
f 13/25/7 14/26/7 4/12/7 3/11/7
f 15/29/8 13/30/8 3/28/8 12/27/8
f 14/33/9 16/34/9 6/32/9 4/31/9
f 17/25/3 18/26/3 10/12/3 9/11/3
f 7/35/6 8/36/6 11/21/6 5/22/6
f 9/16/2 7/37/2 5/6/2 6/8/2
f 8/38/4 10/7/4 12/15/4 11/13/4
f 17/30/9 9/28/9 6/32/9 16/34/9
f 10/31/8 18/33/8 15/29/8 12/27/8
f 21/39/5 22/40/5 20/20/5 19/19/5
f 23/43/7 24/44/7 16/42/7 15/41/7
f 25/45/8 23/46/8 15/29/8 18/33/8
f 24/47/9 26/48/9 17/30/9 16/34/9
f 26/49/3 25/50/3 18/26/3 17/25/3
f 29/51/7 30/52/7 28/44/7 27/43/7
f 21/53/8 19/54/8 23/46/8 25/45/8
f 20/55/9 22/56/9 26/48/9 24/47/9
f 22/57/3 21/58/3 25/50/3 26/49/3
f 27/61/6 28/62/6 24/60/6 23/59/6
f 29/63/8 27/64/8 23/46/8 19/54/8
f 28/65/9 30/66/9 20/55/9 24/47/9
f 30/67/5 29/68/5 19/19/5 20/20/5

