mtllib material.mtl
o Default
v 2 -3.0000077943928654 -0.9999500000002499
v 2 -2.9999077943933656 0.00004999499975011368
v 3 -2.9998929018828755 0.00004999499975011368
v 3 -2.999992901882375 -0.9999500000002499
v 1 -2.999971810831773 -0.9999500000002499
v 1 -2.999871810832273 0.00004999499975011368
v 0 -2.999971810831773 -0.9999500000002499
v 0 -2.999871810832273 0.00004999499975011368
v 0 0.999896787705944 -0.00005000499974994188
v 0 0.999996787705444 -1.0000499999997499
v 1 1.000005056427959 -1.0000499999997499
v 1 0.9999050564284593 -0.00005000499974994188
v 2 1.000009336111872 -1.0000499999997499
v 2 0.9999093361123723 -0.00005000499974994188
v 3 1.000009336111872 -1.0000499999997499
v 3 0.9999093361123722 -0.00005000499974994188
v 3 0 -1.0000000000000018
v 2 0 -1.0000000000000018
v 1 0 -1
v 0 0 -1
v 1 -1 -1
v 0 -1 -1
v 2 -1 -1
v 3 -1 -1.0000000000000018
v 3 -2 -1.0000000000000018
v 2 -2 -1.0000000000000018
v 1 -2 -1
v 0 -2 -1
v 3.0000000000000018 0 1.6653345369377348e-16
v 3 -1 1.6653345369377348e-16
v 3 -2 1.6653345369377348e-16
v 0 0 0
v -8.342530471971921e-18 -1 0
v -3.588521803109907e-15 -2 0
v 2 0 -3.552713678800501e-15
v 1 0 0
v 2 -1 0
v 1 -1 0
v 2 -2 0
v 1 -2 0
vt 0.375 0.25
vt 0.5 0.375
vt 0.375 0.375
vt 0.375 0.25
vt 0.5 0.25
vt 0.5 0.375
vt 0.25 0.25
vt 0.375 0.375
vt 0.25 0.375
vt 0.25 0.25
vt 0.375 0.25
vt 0.375 0.375
vt 0.125 0.25
vt 0.25 0.375
vt 0.125 0.375
vt 0.125 0.25
vt 0.25 0.25
vt 0.25 0.375
vt 0.5 0.625
vt 0.625 0.75
vt 0.5 0.75
vt 0.5 0.625
vt 0.625 0.625
vt 0.625 0.75
vt 0.5 0.625
vt 0.625 0.75
vt 0.5 0.75
vt 0.5 0.625
vt 0.625 0.625
vt 0.625 0.75
vt 0.5 0.625
vt 0.625 0.75
vt 0.5 0.75
vt 0.5 0.625
vt 0.625 0.625
vt 0.625 0.75
vt 0.5 0.625
vt 0.625 0.75
vt 0.5 0.75
vt 0.5 0.625
vt 0.625 0.625
vt 0.625 0.75
vt 0.5 0.625
vt 0.625 0.75
vt 0.5 0.75
vt 0.5 0.625
vt 0.625 0.625
vt 0.625 0.75
vt 0.5 0.625
vt 0.625 0.75
vt 0.5 0.75
vt 0.5 0.625
vt 0.625 0.625
vt 0.625 0.75
vt 0.5 0.625
vt 0.625 0.75
vt 0.5 0.75
vt 0.5 0.625
vt 0.625 0.625
vt 0.625 0.75
vt 0.5 0.625
vt 0.625 0.75
vt 0.5 0.75
vt 0.5 0.625
vt 0.625 0.625
vt 0.625 0.75
vt 0.5 0.625
vt 0.625 0.75
vt 0.5 0.75
vt 0.5 0.625
vt 0.625 0.625
vt 0.625 0.75
vt 0.625 0.5
vt 0.75 0.625
vt 0.625 0.625
vt 0.625 0.5
vt 0.75 0.5
vt 0.75 0.625
vt 0.75 0.5
vt 0.875 0.625
vt 0.75 0.625
vt 0.75 0.5
vt 0.875 0.5
vt 0.875 0.625
vt 0.875 0.5
vt 1 0.625
vt 0.875 0.625
vt 0.875 0.5
vt 1 0.5
vt 1 0.625
vt 0.625 0.375
vt 0.75 0.5
vt 0.625 0.5
vt 0.625 0.375
vt 0.75 0.375
vt 0.75 0.5
vt 0.625 0.375
vt 0.75 0.5
vt 0.625 0.5
vt 0.625 0.375
vt 0.75 0.375
vt 0.75 0.5
vt 0.625 0.375
vt 0.75 0.5
vt 0.625 0.5
vt 0.625 0.375
vt 0.75 0.375
vt 0.75 0.5
vt 0.5 0.625
vt 0.625 0.75
vt 0.5 0.75
vt 0.5 0.625
vt 0.625 0.625
vt 0.625 0.75
vt 0.5 0.625
vt 0.625 0.75
vt 0.5 0.75
vt 0.5 0.625
vt 0.625 0.625
vt 0.625 0.75
vt 0.5 0.5
vt 0.625 0.625
vt 0.5 0.625
vt 0.5 0.5
vt 0.625 0.5
vt 0.625 0.625
vt 0.5 0.375
vt 0.625 0.5
vt 0.5 0.5
vt 0.5 0.375
vt 0.625 0.375
vt 0.625 0.5
vt 0 0.625
vt 0.125 0.75
vt 0 0.75
vt 0 0.625
vt 0.125 0.625
vt 0.125 0.75
vt 0 0.625
vt 0.125 0.75
vt 0 0.75
vt 0 0.625
vt 0.125 0.625
vt 0.125 0.75
vt 0 0.5
vt 0.125 0.625
vt 0 0.625
vt 0 0.5
vt 0.125 0.5
vt 0.125 0.625
vt 0 0.375
vt 0.125 0.5
vt 0 0.5
vt 0 0.375
vt 0.125 0.375
vt 0.125 0.5
vt 0.375 0.75
vt 0.5 0.875
vt 0.375 0.875
vt 0.375 0.75
vt 0.5 0.75
vt 0.5 0.875
vt 0.25 0.75
vt 0.375 0.875
vt 0.25 0.875
vt 0.25 0.75
vt 0.375 0.75
vt 0.375 0.875
vt 0.125 0.75
vt 0.25 0.875
vt 0.125 0.875
vt 0.125 0.75
vt 0.25 0.75
vt 0.25 0.875
vt 0.375 0.625
vt 0.5 0.75
vt 0.375 0.75
vt 0.375 0.625
vt 0.5 0.625
vt 0.5 0.75
vt 0.25 0.625
vt 0.375 0.75
vt 0.25 0.75
vt 0.25 0.625
vt 0.375 0.625
vt 0.375 0.75
vt 0.125 0.625
vt 0.25 0.75
vt 0.125 0.75
vt 0.125 0.625
vt 0.25 0.625
vt 0.25 0.75
vt 0.375 0.5
vt 0.5 0.625
vt 0.375 0.625
vt 0.375 0.5
vt 0.5 0.5
vt 0.5 0.625
vt 0.25 0.5
vt 0.375 0.625
vt 0.25 0.625
vt 0.25 0.5
vt 0.375 0.5
vt 0.375 0.625
vt 0.125 0.5
vt 0.25 0.625
vt 0.125 0.625
vt 0.125 0.5
vt 0.25 0.5
vt 0.25 0.625
vt 0.375 0.375
vt 0.5 0.5
vt 0.375 0.5
vt 0.375 0.375
vt 0.5 0.375
vt 0.5 0.5
vt 0.25 0.375
vt 0.375 0.5
vt 0.25 0.5
vt 0.25 0.375
vt 0.375 0.375
vt 0.375 0.5
vt 0.125 0.375
vt 0.25 0.5
vt 0.125 0.5
vt 0.125 0.375
vt 0.25 0.375
vt 0.25 0.5
vn 0.000014892510414024703 -0.9999999948891067 0.00009999999948863316
vn 0.000014892510414024703 -0.9999999948891067 0.00009999999948863316
vn 0.000014892510414024703 -0.9999999948891067 0.00009999999948863316
vn 0.000014892510414024703 -0.9999999948891067 0.00009999999948863316
vn 0.000014892510414024703 -0.9999999948891067 0.00009999999948863316
vn 0.000014892510414024703 -0.9999999948891067 0.00009999999948863316
vn -0.000035983560889364635 -0.9999999943525917 0.00009999999943498166
vn -0.000035983560889364635 -0.9999999943525917 0.00009999999943498166
vn -0.000035983560889364635 -0.9999999943525917 0.00009999999943498166
vn -0.000035983560889364635 -0.9999999943525917 0.00009999999943498166
vn -0.000035983560889364635 -0.9999999943525917 0.00009999999943498166
vn -0.000035983560889364635 -0.9999999943525917 0.00009999999943498166
vn 0 -0.999999995 0.00009999999949972249
vn 0 -0.999999995 0.00009999999949972249
vn 0 -0.999999995 0.00009999999949972249
vn 0 -0.999999995 0.00009999999949972249
vn 0 -0.999999995 0.00009999999949972249
vn 0 -0.999999995 0.00009999999949972249
vn -0.000008268722473399465 0.9999999949658142 0.00009999999949652597
vn -0.000008268722473399465 0.9999999949658142 0.00009999999949652597
vn -0.000008268722473399465 0.9999999949658142 0.00009999999949652597
vn -0.00000826872247362151 0.9999999949658142 0.00009999999949630392
vn -0.00000826872247362151 0.9999999949658142 0.00009999999949630392
vn -0.00000826872247362151 0.9999999949658142 0.00009999999949630392
vn -0.000004279683891595628 0.9999999949908424 0.00009999999949880673
vn -0.000004279683891595628 0.9999999949908424 0.00009999999949880673
vn -0.000004279683891595628 0.9999999949908424 0.00009999999949880673
vn -0.000004279683891595628 0.9999999949908424 0.00009999999949880673
vn -0.000004279683891595628 0.9999999949908424 0.00009999999949880673
vn -0.000004279683891595628 0.9999999949908424 0.00009999999949880673
vn 0 0.9999999950000001 0.00009999999949972252
vn 0 0.9999999950000001 0.00009999999949972252
vn 0 0.9999999950000001 0.00009999999949972252
vn 1.1102230190740416e-16 0.9999999950000001 0.00009999999949983354
vn 1.1102230190740416e-16 0.9999999950000001 0.00009999999949983354
vn 1.1102230190740416e-16 0.9999999950000001 0.00009999999949983354
vn 0 -0.0000499995328843535 -0.9999999987500233
vn 0 -0.0000499995328843535 -0.9999999987500233
vn 0 -0.0000499995328843535 -0.9999999987500233
vn 0 -0.0000499995328843535 -0.9999999987500233
vn 0 -0.0000499995328843535 -0.9999999987500233
vn 0 -0.0000499995328843535 -0.9999999987500233
vn 2.1398219654434406e-10 -0.0000499995328843535 -0.9999999987500233
vn 2.1398219654434406e-10 -0.0000499995328843535 -0.9999999987500233
vn 2.1398219654434406e-10 -0.0000499995328843535 -0.9999999987500233
vn -1.776356837179827e-15 -0.00004999974686724388 -0.9999999987500127
vn -1.776356837179827e-15 -0.00004999974686724388 -0.9999999987500127
vn -1.776356837179827e-15 -0.00004999974686724388 -0.9999999987500127
vn 4.134340326667677e-10 -0.00004999974686724388 -0.9999999987500127
vn 4.134340326667677e-10 -0.00004999974686724388 -0.9999999987500127
vn 4.134340326667677e-10 -0.00004999974686724388 -0.9999999987500127
vn 0 -0.000050000160302603584 -0.999999998749992
vn 0 -0.000050000160302603584 -0.999999998749992
vn 0 -0.000050000160302603584 -0.999999998749992
vn 0 0 -1
vn 0 0 -1
vn 0 0 -1
vn 0 0 -1
vn 0 0 -1
vn 0 0 -1
vn -1.7763568394002505e-15 -1.7763568394002505e-15 -1
vn -1.7763568394002505e-15 -1.7763568394002505e-15 -1
vn -1.7763568394002505e-15 -1.7763568394002505e-15 -1
vn 0 0 -1
vn 0 0 -1
vn 0 0 -1
vn 0 0 -1
vn 0 0 -1
vn 0 0 -1
vn -1.7763568394002505e-15 -1.7763568394002505e-15 -1
vn -1.7763568394002505e-15 -1.7763568394002505e-15 -1
vn -1.7763568394002505e-15 -1.7763568394002505e-15 -1
vn -1.7763568394002505e-15 0 -1
vn -1.7763568394002505e-15 0 -1
vn -1.7763568394002505e-15 0 -1
vn 0 1.7763568394002505e-15 -1
vn 0 1.7763568394002505e-15 -1
vn 0 1.7763568394002505e-15 -1
vn 0 1.7763568394002505e-15 -1
vn 0 1.7763568394002505e-15 -1
vn 0 1.7763568394002505e-15 -1
vn -1.7763568394002505e-15 0 -1
vn -1.7763568394002505e-15 0 -1
vn -1.7763568394002505e-15 0 -1
vn 0 0 -1
vn 0 0 -1
vn 0 0 -1
vn 0 0 -1
vn 0 0 -1
vn 0 0 -1
vn 0 -0.0000500014091857149 -0.9999999987499295
vn 0 -0.0000500014091857149 -0.9999999987499295
vn 0 -0.0000500014091857149 -0.9999999987499295
vn 0 -0.0000500014091857149 -0.9999999987499295
vn 0 -0.0000500014091857149 -0.9999999987499295
vn 0 -0.0000500014091857149 -0.9999999987499295
vn -1.776356837179839e-15 -0.000049999609972757376 -0.9999999987500194
vn -1.776356837179839e-15 -0.000049999609972757376 -0.9999999987500194
vn -1.776356837179839e-15 -0.000049999609972757376 -0.9999999987500194
vn -1.7992287621491878e-9 -0.0000500014091857149 -0.9999999987499295
vn -1.7992287621491878e-9 -0.0000500014091857149 -0.9999999987499295
vn -1.7992287621491878e-9 -0.0000500014091857149 -0.9999999987499295
vn 0 -0.000050000354597756976 -0.9999999987499822
vn 0 -0.000050000354597756976 -0.9999999987499822
vn 0 -0.000050000354597756976 -0.9999999987499822
vn 7.446197160221344e-10 -0.000049999609972757376 -0.9999999987500194
vn 7.446197160221344e-10 -0.000049999609972757376 -0.9999999987500194
vn 7.446197160221344e-10 -0.000049999609972757376 -0.9999999987500194
vn 1 1.77651791430428e-15 1.776517914301322e-19
vn 1 1.77651791430428e-15 1.776517914301322e-19
vn 1 1.77651791430428e-15 1.776517914301322e-19
vn 1 -8.881701231695809e-20 -1.776356839400247e-15
vn 1 -8.881701231695809e-20 -1.776356839400247e-15
vn 1 -8.881701231695809e-20 -1.776356839400247e-15
vn 1 -1.7763568394002505e-15 -1.776356839400247e-15
vn 1 -1.7763568394002505e-15 -1.776356839400247e-15
vn 1 -1.7763568394002505e-15 -1.776356839400247e-15
vn 1 0 0
vn 1 0 0
vn 1 0 0
vn 1 0 0
vn 1 0 0
vn 1 0 0
vn 1 0 0
vn 1 0 0
vn 1 0 0
vn 1 0 0
vn 1 0 0
vn 1 0 0
vn 1 0 0
vn 1 0 0
vn 1 0 0
vn -0.9999999999999999 0 0
vn -0.9999999999999999 0 0
vn -0.9999999999999999 0 0
vn -1 0 0
vn -1 0 0
vn -1 0 0
vn -1 0 0
vn -1 0 0
vn -1 0 0
vn -1 8.342530471971921e-18 -8.342530471971921e-18
vn -1 8.342530471971921e-18 -8.342530471971921e-18
vn -1 8.342530471971921e-18 -8.342530471971921e-18
vn -1 0 -8.342530471971921e-18
vn -1 0 -8.342530471971921e-18
vn -1 0 -8.342530471971921e-18
vn -1 3.580179272637935e-15 -3.588521803109907e-15
vn -1 3.580179272637935e-15 -3.588521803109907e-15
vn -1 3.580179272637935e-15 -3.588521803109907e-15
vn -1 -1.7943114727318416e-19 -3.588521803109907e-15
vn -1 -1.7943114727318416e-19 -3.588521803109907e-15
vn -1 -1.7943114727318416e-19 -3.588521803109907e-15
vn -1 -3.5889818537636134e-15 3.588981853753654e-19
vn -1 -3.5889818537636134e-15 3.588981853753654e-19
vn -1 -3.5889818537636134e-15 3.588981853753654e-19
vn 5.552173581181055e-21 0.000050009533742606626 0.9999999987495232
vn 5.552173581181055e-21 0.000050009533742606626 0.9999999987495232
vn 5.552173581181055e-21 0.000050009533742606626 0.9999999987495232
vn -3.719247127843436e-15 0.00005000953374632622 0.9999999987495233
vn -3.719247127843436e-15 0.00005000953374632622 0.9999999987495233
vn -3.719247127843436e-15 0.00005000953374632622 0.9999999987495233
vn -2.1402591311803976e-10 0.000050009747791478426 0.9999999987495125
vn -2.1402591311803976e-10 0.000050009747791478426 0.9999999987495125
vn -2.1402591311803976e-10 0.000050009747791478426 0.9999999987495125
vn 3.5527136743579148e-15 0.000050009533742606626 0.9999999987495232
vn 3.5527136743579148e-15 0.000050009533742606626 0.9999999987495232
vn 3.5527136743579148e-15 0.000050009533742606626 0.9999999987495232
vn -4.1352014715327393e-10 0.00005001016135088936 0.9999999987494919
vn -4.1352014715327393e-10 0.00005001016135088936 0.9999999987494919
vn -4.1352014715327393e-10 0.00005001016135088936 0.9999999987494919
vn 0 0.000050009747791478426 0.9999999987495125
vn 0 0.000050009747791478426 0.9999999987495125
vn 0 0.000050009747791478426 0.9999999987495125
vn -3.719247132494268e-15 3.552713678800501e-15 1
vn -3.719247132494268e-15 3.552713678800501e-15 1
vn -3.719247132494268e-15 3.552713678800501e-15 1
vn -1.6653345369377348e-16 2.9582283945787943e-31 1
vn -1.6653345369377348e-16 2.9582283945787943e-31 1
vn -1.6653345369377348e-16 2.9582283945787943e-31 1
vn 3.552713678800501e-15 0 1
vn 3.552713678800501e-15 0 1
vn 3.552713678800501e-15 0 1
vn 0 3.552713678800501e-15 1
vn 0 3.552713678800501e-15 1
vn 0 3.552713678800501e-15 1
vn 0 0 1
vn 0 0 1
vn 0 0 1
vn 0 0 1
vn 0 0 1
vn 0 0 1
vn -1.6653345369377348e-16 0 1
vn -1.6653345369377348e-16 0 1
vn -1.6653345369377348e-16 0 1
vn -1.6653345369377348e-16 0 1
vn -1.6653345369377348e-16 0 1
vn -1.6653345369377348e-16 0 1
vn 0 0 1
vn 0 0 1
vn 0 0 1
vn 0 0 1
vn 0 0 1
vn 0 0 1
vn 0 0 1
vn 0 0 1
vn 0 0 1
vn 0 0 1
vn 0 0 1
vn 0 0 1
vn -1.665334534856099e-16 0.000049999609931986164 0.9999999987500194
vn -1.665334534856099e-16 0.000049999609931986164 0.9999999987500194
vn -1.665334534856099e-16 0.000049999609931986164 0.9999999987500194
vn -7.446308058571293e-10 0.00005000035463128907 0.9999999987499821
vn -7.446308058571293e-10 0.00005000035463128907 0.9999999987499821
vn -7.446308058571293e-10 0.00005000035463128907 0.9999999987499821
vn 0 0.00005000140932666316 0.9999999987499295
vn 0 0.00005000140932666316 0.9999999987499295
vn 0 0.00005000140932666316 0.9999999987499295
vn 1.7991640185927188e-9 0.000049999609931986164 0.9999999987500194
vn 1.7991640185927188e-9 0.000049999609931986164 0.9999999987500194
vn 1.7991640185927188e-9 0.000049999609931986164 0.9999999987500194
vn 0 0.00005000140932666316 0.9999999987499295
vn 0 0.00005000140932666316 0.9999999987499295
vn 0 0.00005000140932666316 0.9999999987499295
vn 0 0.00005000140932666316 0.9999999987499295
vn 0 0.00005000140932666316 0.9999999987499295
vn 0 0.00005000140932666316 0.9999999987499295
g Scene
usemtl material1
f 1/1/1 3/2/2 2/3/3
f 1/4/4 4/5/5 3/6/6
f 5/7/7 2/8/8 6/9/9
f 5/10/10 1/11/11 2/12/12
f 7/13/13 6/14/14 8/15/15
f 7/16/16 5/17/17 6/18/18
f 9/19/19 11/20/20 10/21/21
f 9/22/22 12/23/23 11/24/24
f 12/25/25 13/26/26 11/27/27
f 12/28/28 14/29/29 13/30/30
f 14/31/31 15/32/32 13/33/33
f 14/34/34 16/35/35 15/36/36
f 17/37/37 13/38/38 15/39/39
f 17/40/40 18/41/41 13/42/42
f 18/43/43 11/44/44 13/45/45
f 18/46/46 19/47/47 11/48/48
f 19/49/49 10/50/50 11/51/51
f 19/52/52 20/53/53 10/54/54
f 21/55/55 20/56/56 19/57/57
f 21/58/58 22/59/59 20/60/60
f 23/61/61 19/62/62 18/63/63
f 23/64/64 21/65/65 19/66/66
f 24/67/67 18/68/68 17/69/69
f 24/70/70 23/71/71 18/72/72
f 25/73/73 23/74/74 24/75/75
f 25/76/76 26/77/77 23/78/78
f 26/79/79 21/80/80 23/81/81
f 26/82/82 27/83/83 21/84/84
f 27/85/85 22/86/86 21/87/87
f 27/88/88 28/89/89 22/90/90
f 5/91/91 28/92/92 27/93/93
f 5/94/94 7/95/95 28/96/96
f 1/97/97 27/98/98 26/99/99
f 1/100/100 5/101/101 27/102/102
f 4/103/103 26/104/104 25/105/105
f 4/106/106 1/107/107 26/108/108
f 29/109/109 15/110/110 16/111/111
f 29/112/112 17/113/113 15/114/114
f 30/115/115 17/116/116 29/117/117
f 30/118/118 24/119/119 17/120/120
f 31/121/121 24/122/122 30/123/123
f 31/124/124 25/125/125 24/126/126
f 3/127/127 25/128/128 31/129/129
f 3/130/130 4/131/131 25/132/132
f 20/133/133 9/134/134 10/135/135
f 20/136/136 32/137/137 9/138/138
f 22/139/139 32/140/140 20/141/141
f 22/142/142 33/143/143 32/144/144
f 28/145/145 33/146/146 22/147/147
f 28/148/148 34/149/149 33/150/150
f 7/151/151 34/152/152 28/153/153
f 7/154/154 8/155/155 34/156/156
f 35/157/157 16/158/158 14/159/159
f 35/160/160 29/161/161 16/162/162
f 36/163/163 14/164/164 12/165/165
f 36/166/166 35/167/167 14/168/168
f 32/169/169 12/170/170 9/171/171
f 32/172/172 36/173/173 12/174/174
f 37/175/175 29/176/176 35/177/177
f 37/178/178 30/179/179 29/180/180
f 38/181/181 35/182/182 36/183/183
f 38/184/184 37/185/185 35/186/186
f 33/187/187 36/188/188 32/189/189
f 33/190/190 38/191/191 36/192/192
f 39/193/193 30/194/194 37/195/195
f 39/196/196 31/197/197 30/198/198
f 40/199/199 37/200/200 38/201/201
f 40/202/202 39/203/203 37/204/204
f 34/205/205 38/206/206 33/207/207
f 34/208/208 40/209/209 38/210/210
f 2/211/211 31/212/212 39/213/213
f 2/214/214 3/215/215 31/216/216
f 6/217/217 39/218/218 40/219/219
f 6/220/220 2/221/221 39/222/222
f 8/223/223 40/224/224 34/225/225
f 8/226/226 6/227/227 40/228/228
