mtllib material.mtl
o Default
v 40 -0.00007928726607211745 0.0004999999974986125
v 40 0.003920712713925664 40.000499799997506
v 80 0.003830709612306212 40.000499799997506
v 80 -0.00016929036769156947 0.0004999999974986125
v 0 -0.00007928726607211745 0.0004999999975030534
v 0 0.003920712713925664 40.000499799997506
v 1.7763568394002505e-14 80 0
v 1.7763568394002505e-14 120 0
v 2.6645352591003757e-14 120 40
v 2.6645352591003757e-14 80 40
v 0 40 0
v 8.881784197001252e-15 40 40.000000000000014
v 40 80 0
v 40 120 0
v 40 40 0
v 80 40 0
v 80 80 0
v 26.875 80 5
v -7.105427357601002e-14 120 5
v -7.105427357601002e-14 120 -35
v 26.875000000000018 80 -35
v 53.125 40 5
v 53.125 40 -35
v 80 0 5
v 80.00000000000001 0 -35
v -7.105427357601002e-14 80 5.000000000000071
v 39.99999999999993 120 5.000000000000071
v 39.99999999999993 80 5.000000000000071
v 39.99999999999993 40 5
v 79.99999999999993 80 5
v 79.99999999999993 40 5
v -7.105427357601002e-14 40 5.000000000000071
v -7.105427357601002e-14 0 5.000000000000071
v 39.99999999999993 0 5
vt 0.5 0.75
vt 0.75 0.5
vt 0.75 0.75
vt 0.5 0.75
vt 0.5 0.5
vt 0.75 0.5
vt 0.5 0.75
vt 0.75 0.5
vt 0.75 0.75
vt 0.5 0.75
vt 0.5 0.5
vt 0.75 0.5
vt 0.5 0.5
vt 0.75 0.75
vt 0.5 0.75
vt 0.5 0.5
vt 0.75 0.5
vt 0.75 0.75
vt 0.5 0.5
vt 0.75 0.75
vt 0.5 0.75
vt 0.5 0.5
vt 0.75 0.5
vt 0.75 0.75
vt 0.5 0.5
vt 0.75 0.75
vt 0.5 0.75
vt 0.5 0.5
vt 0.75 0.5
vt 0.75 0.75
vt 0.25 0.75
vt 0 1
vt 0.25 1
vt 0.25 0.75
vt 0 0.75
vt 0 1
vt 0.25 0.5
vt 0 0.75
vt 0.25 0.75
vt 0.25 0.5
vt 0 0.5
vt 0 0.75
vt 0.5 0.5
vt 0.25 0.75
vt 0.5 0.75
vt 0.5 0.5
vt 0.25 0.5
vt 0.25 0.75
vt 0.25 0.25
vt 0 0.5
vt 0.25 0.5
vt 0.25 0.25
vt 0 0.25
vt 0 0.5
vt 0.5 0.25
vt 0.25 0.5
vt 0.5 0.5
vt 0.5 0.25
vt 0.25 0.25
vt 0.25 0.5
vt 0.5 0.5
vt 0.75 0.71875
vt 0.5 0.71875
vt 0.5 0.5
vt 0.75 0.5
vt 0.75 0.71875
vt 0.5 0.5
vt 0.75 0.75
vt 0.5 0.75
vt 0.5 0.5
vt 0.75 0.5
vt 0.75 0.75
vt 0.5 0.5
vt 0.75 0.75
vt 0.5 0.75
vt 0.5 0.5
vt 0.75 0.5
vt 0.75 0.75
vt 0 0.75
vt 0.25 1
vt 0 1
vt 0 0.75
vt 0.25 0.75
vt 0.25 1
vt 0.25 0.5
vt 0.5 0.75
vt 0.25 0.75
vt 0.25 0.5
vt 0.5 0.5
vt 0.5 0.75
vt 0 0.5
vt 0.25 0.75
vt 0 0.75
vt 0 0.5
vt 0.25 0.5
vt 0.25 0.75
vt 0 0.25
vt 0.25 0.5
vt 0 0.5
vt 0 0.25
vt 0.25 0.25
vt 0.25 0.5
vt 0.25 0.25
vt 0.5 0.5
vt 0.25 0.5
vt 0.25 0.25
vt 0.5 0.25
vt 0.5 0.5
vn -0.0000022500775292302235 -0.9999999949974686 0.0000999999994996914
vn -0.0000022500775292302235 -0.9999999949974686 0.0000999999994996914
vn -0.0000022500775292302235 -0.9999999949974686 0.0000999999994996914
vn -0.0000022500775292302168 -0.9999999949974686 0.00009999999949969139
vn -0.0000022500775292302168 -0.9999999949974686 0.00009999999949969139
vn -0.0000022500775292302168 -0.9999999949974686 0.00009999999949969139
vn 0 -0.999999995 0.00009999999949994454
vn 0 -0.999999995 0.00009999999949994454
vn 0 -0.999999995 0.00009999999949994454
vn 1.1102230190734256e-20 -0.9999999950000001 0.00009999999949994454
vn 1.1102230190734256e-20 -0.9999999950000001 0.00009999999949994454
vn 1.1102230190734256e-20 -0.9999999950000001 0.00009999999949994454
vn -1 0 2.220446049250313e-16
vn -1 0 2.220446049250313e-16
vn -1 0 2.220446049250313e-16
vn -1 0 2.220446049250313e-16
vn -1 0 2.220446049250313e-16
vn -1 0 2.220446049250313e-16
vn -1 4.440892098500626e-16 2.220446049250313e-16
vn -1 4.440892098500626e-16 2.220446049250313e-16
vn -1 4.440892098500626e-16 2.220446049250313e-16
vn -1 4.440892098500627e-16 2.220446049250312e-16
vn -1 4.440892098500627e-16 2.220446049250312e-16
vn -1 4.440892098500627e-16 2.220446049250312e-16
vn -1 2.775552046053713e-21 2.220446049250312e-16
vn -1 2.775552046053713e-21 2.220446049250312e-16
vn -1 2.775552046053713e-21 2.220446049250312e-16
vn -1 2.2206637110867295e-16 -2.2206637110854974e-20
vn -1 2.2206637110867295e-16 -2.2206637110854974e-20
vn -1 2.2206637110867295e-16 -2.2206637110854974e-20
vn 0 0 -1
vn 0 0 -1
vn 0 0 -1
vn 0 0 -1
vn 0 0 -1
vn 0 0 -1
vn 0 0 -1
vn 0 0 -1
vn 0 0 -1
vn 0 0 -1
vn 0 0 -1
vn 0 0 -1
vn 0 0 -1
vn 0 0 -1
vn 0 0 -1
vn 0 0 -1
vn 0 0 -1
vn 0 0 -1
vn 0 -0.000012499975159267345 -0.9999999999218753
vn 0 -0.000012499975159267345 -0.9999999999218753
vn 0 -0.000012499975159267345 -0.9999999999218753
vn -1.1102230245384207e-16 -0.000012499975159378367 -0.9999999999218753
vn -1.1102230245384207e-16 -0.000012499975159378367 -0.9999999999218753
vn -1.1102230245384207e-16 -0.000012499975159378367 -0.9999999999218753
vn 0 -0.000012499947033473023 -0.9999999999218757
vn 0 -0.000012499947033473023 -0.9999999999218757
vn 0 -0.000012499947033473023 -0.9999999999218757
vn -2.812591336250412e-11 -0.000012499975159267345 -0.9999999999218753
vn -2.812591336250412e-11 -0.000012499975159267345 -0.9999999999218753
vn -2.812591336250412e-11 -0.000012499975159267345 -0.9999999999218753
vn 0.8300495997825924 0.5576895748539308 0
vn 0.8300495997825924 0.5576895748539308 0
vn 0.8300495997825924 0.5576895748539308 0
vn 0.8300495997825923 0.557689574853931 3.686160709038121e-16
vn 0.8300495997825923 0.557689574853931 3.686160709038121e-16
vn 0.8300495997825923 0.557689574853931 3.686160709038121e-16
vn 0.8360479108370626 0.5486564414868224 3.7127985612042675e-16
vn 0.8360479108370626 0.5486564414868224 3.7127985612042675e-16
vn 0.8360479108370626 0.5486564414868224 3.7127985612042675e-16
vn 0.8360479108370628 0.548656441486822 0
vn 0.8360479108370628 0.548656441486822 0
vn 0.8360479108370628 0.548656441486822 0
vn 0.8300495997825932 0.5576895748539298 0
vn 0.8300495997825932 0.5576895748539298 0
vn 0.8300495997825932 0.5576895748539298 0
vn 0.8300495997825929 0.5576895748539299 3.6861607090381237e-16
vn 0.8300495997825929 0.5576895748539299 3.6861607090381237e-16
vn 0.8300495997825929 0.5576895748539299 3.6861607090381237e-16
vn -1.7763568394002505e-15 1.7763568394002505e-15 1
vn -1.7763568394002505e-15 1.7763568394002505e-15 1
vn -1.7763568394002505e-15 1.7763568394002505e-15 1
vn 0 0 1
vn 0 0 1
vn 0 0 1
vn 1.7763568394002505e-15 -1.7763568394002505e-15 1
vn 1.7763568394002505e-15 -1.7763568394002505e-15 1
vn 1.7763568394002505e-15 -1.7763568394002505e-15 1
vn 0 0 1
vn 0 0 1
vn 0 0 1
vn 0 0 1
vn 0 0 1
vn 0 0 1
vn 1.7763568394002505e-15 -1.7763568394002505e-15 1
vn 1.7763568394002505e-15 -1.7763568394002505e-15 1
vn 1.7763568394002505e-15 -1.7763568394002505e-15 1
vn 1.7763568394002505e-15 0 1
vn 1.7763568394002505e-15 0 1
vn 1.7763568394002505e-15 0 1
vn 1.7763568394002505e-15 0 1
vn 1.7763568394002505e-15 0 1
vn 1.7763568394002505e-15 0 1
vn 0 0 1
vn 0 0 1
vn 0 0 1
vn 0 0 1
vn 0 0 1
vn 0 0 1
g Scene
usemtl material1
f 1/1/1 3/2/2 2/3/3
f 1/4/4 4/5/5 3/6/6
f 5/7/7 2/8/8 6/9/9
f 5/10/10 1/11/11 2/12/12
f 7/13/13 9/14/14 8/15/15
f 7/16/16 10/17/17 9/18/18
f 11/19/19 10/20/20 7/21/21
f 11/22/22 12/23/23 10/24/24
f 5/25/25 12/26/26 11/27/27
f 5/28/28 6/29/29 12/30/30
f 13/31/31 8/32/32 14/33/33
f 13/34/34 7/35/35 8/36/36
f 15/37/37 7/38/38 13/39/39
f 15/40/40 11/41/41 7/42/42
f 16/43/43 13/44/44 17/45/45
f 16/46/46 15/47/47 13/48/48
f 1/49/49 11/50/50 15/51/51
f 1/52/52 5/53/53 11/54/54
f 4/55/55 15/56/56 16/57/57
f 4/58/58 1/59/59 15/60/60
f 18/61/61 20/62/62 19/63/63
f 18/64/64 21/65/65 20/66/66
f 22/67/67 21/68/68 18/69/69
f 22/70/70 23/71/71 21/72/72
f 24/73/73 23/74/74 22/75/75
f 24/76/76 25/77/77 23/78/78
f 26/79/79 27/80/80 19/81/81
f 26/82/82 28/83/83 27/84/84
f 29/85/85 30/86/86 28/87/87
f 29/88/88 31/89/89 30/90/90
f 32/91/91 28/92/92 26/93/93
f 32/94/94 29/95/95 28/96/96
f 33/97/97 29/98/98 32/99/99
f 33/100/100 34/101/101 29/102/102
f 34/103/103 31/104/104 29/105/105
f 34/106/106 24/107/107 31/108/108
